<svg width="81" height="81" viewBox="0 0 81 81" fill="none" xmlns="http://www.w3.org/2000/svg">
<g clip-path="url(#clip0_1285_3626)">
<path d="M78.8333 57.1664H73.8333V20.4997C73.8333 16.823 70.8434 13.833 67.1666 13.833H13.8333C10.1566 13.833 7.16656 16.8229 7.16656 20.4997V57.1664H2.16656C1.24547 57.1664 0.5 57.9117 0.5 58.833V60.4997C0.5 64.1764 3.48984 67.1664 7.16672 67.1664H73.8334C77.5102 67.1664 80.5 64.1764 80.5 60.4997V58.833C80.5 57.9117 79.7545 57.1664 78.8333 57.1664ZM10.5 20.4997C10.5 18.6622 11.9958 17.1664 13.8333 17.1664H67.1666C69.0041 17.1664 70.4998 18.6622 70.4998 20.4997V57.1664H48.8333H32.1667H10.5V20.4997ZM73.8333 63.833H7.16672C5.32922 63.833 3.83344 62.3372 3.83344 60.4997H8.83344H31.4766L32.655 61.6781C32.9675 61.9906 33.3906 62.1664 33.8334 62.1664H47.1667C47.6094 62.1664 48.0327 61.9906 48.3452 61.6781L49.5234 60.4997H72.1667H77.1667C77.1667 62.3372 75.6709 63.833 73.8333 63.833Z" fill="#667085"/>
</g>
<defs>
<clipPath id="clip0_1285_3626">
<rect width="80" height="80" fill="white" transform="translate(0.5 0.5)"/>
</clipPath>
</defs>
</svg>
