<svg width="20" height="20" viewBox="0 0 20 20" fill="none" xmlns="http://www.w3.org/2000/svg">
<g clip-path="url(#clip0_380_3851)">
<path d="M16.3088 11.3125L15.1645 12.4567L17.0193 14.3123H16.7101C13.9717 14.3123 12.2303 13.0725 10.6847 11.4735L10.4419 11.7551C10.1765 12.0626 9.90301 12.379 9.61816 12.6971C10.4979 13.7158 11.5874 14.5324 12.812 15.091C14.0366 15.6497 15.3674 15.9372 16.7134 15.9339H17.0193L15.1637 17.7895L16.308 18.9337L18.9727 16.2689C19.2761 15.9654 19.4466 15.5539 19.4466 15.1247C19.4466 14.6956 19.2761 14.284 18.9727 13.9805L16.3088 11.3125Z" fill="#006D77"/>
<path d="M16.7108 6.22013H17.0191L15.1644 8.07566L16.3086 9.21989L18.9733 6.55514C19.2767 6.25164 19.4472 5.84006 19.4472 5.41091C19.4472 4.98176 19.2767 4.57018 18.9733 4.26668L16.3086 1.60193L15.1644 2.74616L17.0191 4.60169H16.71C12.6987 4.60169 10.5057 6.7623 8.51583 9.03458C6.55024 6.8149 4.18733 4.60169 -0.00683594 4.60169V6.22013C3.60551 6.22013 5.55491 8.11046 7.44524 10.2662C5.55491 12.422 3.60551 14.3123 -0.00683594 14.3123V15.9307C4.69309 15.9307 7.09485 13.1503 9.21823 10.6983C11.204 8.3953 13.0839 6.22013 16.7108 6.22013Z" fill="#006D77"/>
</g>
<defs>
<clipPath id="clip0_380_3851">
<rect width="19.4212" height="19.4212" fill="white" transform="translate(0.0253906 0.555603)"/>
</clipPath>
</defs>
</svg>
