<svg width="11" height="18" viewBox="0 0 11 18" fill="none" xmlns="http://www.w3.org/2000/svg">
<path d="M1.25459 0.427563L0.414351 1.2939C0.138143 1.59412 -7.01797e-07 1.94475 -6.84302e-07 2.345C-6.66445e-07 2.75351 0.138143 3.09998 0.414351 3.38498L5.85856 8.99996L0.414509 14.6149C0.1383 14.8999 0.000157029 15.2464 0.000157047 15.6548C0.000157065 16.0552 0.1383 16.4058 0.414509 16.706L1.25475 17.561C1.53837 17.8537 1.87826 18 2.27409 18C2.6773 18 3.01334 17.8536 3.28213 17.561L10.5744 10.0399C10.8581 9.76246 11 9.41603 11 9C11 8.59178 10.8581 8.24126 10.5744 7.94881L3.28213 0.427604C3.00577 0.142602 2.66977 2.12421e-07 2.27409 2.29716e-07C1.88563 -4.02193e-05 1.54594 0.142561 1.25459 0.427563Z" fill="#101828"/>
</svg>
