<svg width="34" height="34" viewBox="0 0 34 34" fill="none" xmlns="http://www.w3.org/2000/svg">
<path d="M17.0001 3.073C15.6891 3.073 14.6226 4.13948 14.6226 5.45047C14.6226 6.76147 15.6891 7.82802 17.0001 7.82802C18.3111 7.82802 19.3776 6.76147 19.3776 5.45047C19.3776 4.13948 18.3111 3.073 17.0001 3.073ZM17.0001 5.8082C16.8029 5.8082 16.6424 5.64777 16.6424 5.45054C16.6424 5.25331 16.8029 5.09294 17.0001 5.09294C17.1973 5.09294 17.3578 5.25331 17.3578 5.45054C17.3578 5.64777 17.1973 5.8082 17.0001 5.8082Z" fill="#101828"/>
<path d="M24.4971 16.0704V21.6755H26.1016C25.1764 24.6806 22.8081 27.0487 19.8026 27.9739V17.268H23.1183V11.6628H19.8026V10.123C21.4303 9.14534 22.4506 7.37667 22.4506 5.45049C22.4506 2.44508 20.0054 0 17.0001 0C13.9947 0 11.5496 2.44508 11.5496 5.45056C11.5496 7.37674 12.5699 9.14534 14.1976 10.123V11.6629H10.8819V17.268H14.1976V27.974C11.1921 27.0488 8.82372 24.6807 7.89855 21.6756H9.50299V16.0705H1.87305V18.8731C1.87305 27.2141 8.65897 34 17.0001 34C25.3412 34 32.1271 27.214 32.1271 18.873V16.0704H24.4971ZM30.1071 18.8731C30.1071 26.1003 24.2274 31.9801 17.0001 31.9801C9.77274 31.9801 3.89299 26.1003 3.89299 18.8731V18.0904H7.48325V19.6557H5.42233L5.62573 20.837C6.45249 25.6383 10.2343 29.4198 15.0361 30.2468L16.2175 30.4502V15.2481H12.9018V13.6828H16.2175V8.85461L15.6167 8.58839C14.3731 8.03728 13.5695 6.80564 13.5695 5.45056C13.5695 3.55891 15.1085 2.01995 17.0001 2.01995C18.8918 2.01995 20.4307 3.55891 20.4307 5.45056C20.4307 6.80564 19.6272 8.03728 18.3836 8.58839L17.7828 8.85461V13.6828H21.0985V15.2481H17.7828V30.4503L18.9642 30.2469C23.7661 29.4199 27.5478 25.6384 28.3746 20.8371L28.578 19.6557H26.5171V18.0905H30.1073V18.8731H30.1071Z" fill="#101828"/>
</svg>
