<svg width="20" height="20" viewBox="0 0 20 20" fill="none" xmlns="http://www.w3.org/2000/svg">
<g clip-path="url(#clip0_380_3848)">
<path d="M14.2463 1.29767C13.335 1.31184 12.4437 1.56621 11.6622 2.03508C10.8808 2.50396 10.2369 3.17074 9.79557 3.96808C9.35425 3.17074 8.71036 2.50396 7.9289 2.03508C7.14744 1.56621 6.2561 1.31184 5.34488 1.29767C3.89229 1.36078 2.52371 1.99623 1.53815 3.06519C0.552586 4.13414 0.0301473 5.54972 0.0849722 7.00264C0.0849722 12.4851 8.95075 18.8172 9.32784 19.0859L9.79557 19.4168L10.2633 19.0859C10.6404 18.8188 19.5062 12.4851 19.5062 7.00264C19.561 5.54972 19.0386 4.13414 18.053 3.06519C17.0674 1.99623 15.6989 1.36078 14.2463 1.29767ZM9.79557 17.4245C7.16319 15.4581 1.70341 10.6271 1.70341 7.00264C1.64809 5.97876 1.99987 4.97453 2.68204 4.20899C3.36421 3.44344 4.32141 2.97869 5.34488 2.9161C6.36835 2.97869 7.32555 3.44344 8.00772 4.20899C8.68988 4.97453 9.04167 5.97876 8.98635 7.00264H10.6048C10.5495 5.97876 10.9013 4.97453 11.5834 4.20899C12.2656 3.44344 13.2228 2.97869 14.2463 2.9161C15.2697 2.97869 16.2269 3.44344 16.9091 4.20899C17.5913 4.97453 17.9431 5.97876 17.8877 7.00264C17.8877 10.6287 12.4279 15.4581 9.79557 17.4245Z" fill="#006D77"/>
</g>
<defs>
<clipPath id="clip0_380_3848">
<rect width="19.4212" height="19.4212" fill="white" transform="translate(0.0849609 0.555603)"/>
</clipPath>
</defs>
</svg>
