<svg width="36" height="36" viewBox="0 0 36 36" fill="none" xmlns="http://www.w3.org/2000/svg">
<g clip-path="url(#clip0_380_4300)">
<path d="M35.5614 20.3717C35.2327 19.8797 34.7571 19.5226 34.2021 19.344C34.169 17.4431 33.8093 15.5837 33.1279 13.8045C32.4387 12.0055 31.4489 10.3693 30.1816 8.92611L31.4708 7.63686L30.7126 6.87861C27.3034 3.46923 22.7704 1.59167 17.9489 1.59167C13.1275 1.59167 8.59443 3.46923 5.18519 6.87861L4.4268 7.63679L5.71605 8.92604C4.44614 10.3719 3.45508 12.0117 2.76581 13.8147C2.08258 15.602 1.72385 17.47 1.69481 19.3793C0.519187 19.8146 -0.202008 21.054 0.0502024 22.3217L1.8938 31.59C2.02922 32.2706 2.42149 32.8576 2.9984 33.2432C3.43069 33.5321 3.92787 33.6819 4.43622 33.6819C4.60638 33.6819 4.7778 33.6651 4.94845 33.6311L6.19678 33.3828L6.40075 34.4083L12.3005 33.2348L9.03529 16.8196L3.95205 17.8307C4.09373 16.722 4.36591 15.6349 4.76894 14.5806C5.34979 13.0611 6.17772 11.6745 7.23543 10.4458L8.47068 11.6811L9.22893 10.9228C11.554 8.59782 14.6507 7.31729 17.9486 7.31729C21.2465 7.31729 24.3431 8.59775 26.6683 10.9228L27.4265 11.6812L28.6618 10.4458C29.7174 11.6721 30.5442 13.0557 31.1249 14.5718C31.5273 15.6222 31.7997 16.7052 31.9426 17.8099L26.9641 16.8196L23.699 33.2347L29.5987 34.4082L29.8028 33.3826L31.0511 33.6309C31.2218 33.6649 31.3932 33.6817 31.5634 33.6817C32.0718 33.6817 32.569 33.5318 33.0012 33.243C33.5781 32.8575 33.9705 32.2704 34.1058 31.5898L35.9494 22.3216C36.0847 21.6411 35.947 20.9486 35.5614 20.3717ZM7.35047 19.3414L9.77878 31.5498L8.086 31.8864L6.87178 25.7823L5.65755 19.6782L7.35047 19.3414ZM4.76824 26.2007L5.77849 31.2792L4.53009 31.5275C4.36999 31.5596 4.24835 31.4988 4.19006 31.4599C4.13177 31.421 4.02919 31.3317 3.9974 31.1715L2.15381 21.9032C2.10508 21.6582 2.26476 21.4191 2.5098 21.3704L3.75813 21.1221L4.76824 26.2007ZM27.3992 8.67538C24.7757 6.409 21.4591 5.17241 17.9489 5.17241C14.4387 5.17241 11.122 6.409 8.4986 8.67545L7.4849 7.66168C10.3835 5.12263 14.0597 3.73628 17.9488 3.73628C21.838 3.73628 25.5141 5.1227 28.4127 7.66168L27.3992 8.67538ZM29.1279 25.7823L27.9137 31.8864L26.2209 31.5497L28.6492 19.3414L30.3419 19.6781L29.1279 25.7823ZM33.8458 21.9033L32.0022 31.1716C31.9704 31.3318 31.8678 31.421 31.8096 31.4599C31.7514 31.4989 31.6294 31.5597 31.4695 31.5276L30.2211 31.2793L31.2313 26.2007L32.2414 21.1221L33.4898 21.3704C33.65 21.4023 33.7392 21.5049 33.7783 21.5631C33.8171 21.6214 33.8777 21.743 33.8458 21.9033Z" fill="#101828"/>
</g>
<defs>
<clipPath id="clip0_380_4300">
<rect width="36" height="36" fill="white"/>
</clipPath>
</defs>
</svg>
