<svg width="17" height="16" viewBox="0 0 17 16" fill="none" xmlns="http://www.w3.org/2000/svg">
<g clip-path="url(#clip0_419_5600)">
<path d="M0.422119 2V7.33333H7.75545V0H2.42212C1.89169 0 1.38298 0.210714 1.00791 0.585786C0.632833 0.960859 0.422119 1.46957 0.422119 2H0.422119ZM6.42212 6H1.75545V2C1.75545 1.82319 1.82569 1.65362 1.95071 1.5286C2.07574 1.40357 2.24531 1.33333 2.42212 1.33333H6.42212V6Z" fill="#667085"/>
<path d="M0.422119 13.9993C0.422119 14.5298 0.632833 15.0385 1.00791 15.4136C1.38298 15.7886 1.89169 15.9993 2.42212 15.9993H7.75545V8.66602H0.422119V13.9993ZM1.75545 9.99935H6.42212V14.666H2.42212C2.24531 14.666 2.07574 14.5958 1.95071 14.4708C1.82569 14.3457 1.75545 14.1762 1.75545 13.9993V9.99935Z" fill="#667085"/>
<path d="M13.7555 14.2776V1.7236L15.4781 3.4436L16.4221 2.50026L14.5028 0.583597C14.1278 0.209266 13.6196 -0.000976563 13.0898 -0.000976562C12.56 -0.000976562 12.0518 0.209266 11.6768 0.583597L9.76014 2.49693L10.7021 3.44026L12.4221 1.72093V14.2769L10.6988 12.5556L9.75681 13.4989L11.6761 15.4156C12.0511 15.7899 12.5593 16.0002 13.0891 16.0002C13.619 16.0002 14.1272 15.7899 14.5021 15.4156L16.4221 13.5023L15.4801 12.5589L13.7555 14.2776Z" fill="#667085"/>
</g>
<defs>
<clipPath id="clip0_419_5600">
<rect width="16" height="16" fill="white" transform="translate(0.422119)"/>
</clipPath>
</defs>
</svg>
