<svg width="24" height="24" viewBox="0 0 24 24" fill="none" xmlns="http://www.w3.org/2000/svg">
<path d="M19.0609 7.85399C18.9216 7.7146 18.7562 7.60402 18.5741 7.52858C18.3921 7.45314 18.197 7.41431 17.9999 7.41431C17.8028 7.41431 17.6077 7.45314 17.4256 7.52858C17.2436 7.60402 17.0782 7.7146 16.9389 7.85399L12.3529 12.439C12.2591 12.5327 12.132 12.5854 11.9994 12.5854C11.8668 12.5854 11.7397 12.5327 11.6459 12.439L7.06088 7.85399C6.77962 7.57259 6.3981 7.41445 6.00024 7.41436C5.60238 7.41427 5.22078 7.57222 4.93938 7.85349C4.65799 8.13475 4.49985 8.51627 4.49976 8.91413C4.49966 9.31199 4.65762 9.69359 4.93888 9.97499L9.52489 14.561C9.8499 14.886 10.2357 15.1439 10.6604 15.3198C11.0851 15.4957 11.5402 15.5862 11.9999 15.5862C12.4595 15.5862 12.9147 15.4957 13.3394 15.3198C13.764 15.1439 14.1499 14.886 14.4749 14.561L19.0609 9.97499C19.3421 9.6937 19.5001 9.31223 19.5001 8.91449C19.5001 8.51674 19.3421 8.13528 19.0609 7.85399Z" fill="#667085"/>
</svg>
