<svg width="24" height="23" viewBox="0 0 24 23" fill="none" xmlns="http://www.w3.org/2000/svg">
<path d="M17.459 21.9448C16.9431 22.1635 16.3615 22.1683 15.842 21.9581C15.3226 21.748 14.908 21.3401 14.6893 20.8242C14.4706 20.3083 14.4658 19.7267 14.6759 19.2073C14.8861 18.6879 15.294 18.2732 15.8098 18.0545C16.0653 17.9462 16.3395 17.8893 16.617 17.887C16.8944 17.8848 17.1696 17.9371 17.4268 18.0412C17.684 18.1452 17.9181 18.2989 18.1159 18.4935C18.3137 18.688 18.4712 18.9197 18.5795 19.1751C18.6878 19.4305 18.7447 19.7048 18.747 19.9822C18.7493 20.2597 18.6969 20.5348 18.5929 20.792C18.4888 21.0492 18.3351 21.2834 18.1406 21.4812C17.946 21.679 17.7144 21.8365 17.459 21.9448ZM7.77559 5.19974C8.94901 5.19974 9.88987 4.25889 9.88987 3.08547C9.88987 2.52473 9.66711 1.98695 9.27061 1.59045C8.87411 1.19394 8.33633 0.971191 7.77559 0.971191C6.5916 0.971191 5.66132 1.92261 5.66132 3.08547C5.66132 4.25889 6.5916 5.19974 7.77559 5.19974ZM23.0301 16.1305L18.9601 17.8854C19.1927 18.118 19.4041 18.414 19.5521 18.7522C19.7001 19.1011 19.7635 19.4711 19.8058 19.8094L23.8546 18.0757L23.0301 16.1305ZM10.4607 8.13858L11.243 10.052C10.9893 9.95686 10.7567 9.83 10.5664 9.70314C9.93215 9.29086 9.46701 8.77286 9.16044 8.15972L8.37816 6.50002C8.1773 6.13002 7.93416 5.85517 7.59588 5.66488C7.28931 5.48517 6.9616 5.39002 6.62331 5.39002C6.28503 5.39002 5.96789 5.4746 5.66132 5.62259C4.18133 6.78545 3.81133 8.94201 3.81133 8.94201L3.4519 10.6017C3.35676 11.1514 3.3039 11.7011 3.3039 12.2614V17.5048L0.777344 20.9194L2.36305 22.1139L5.29132 18.1497L5.47103 14.714L7.24702 17.1877V22.1139H9.20273V15.7077L7.24702 12.9486V12.2614C7.24702 11.7963 7.24702 11.3417 7.36331 10.8977L7.73331 9.62914C8.13502 10.2106 8.6213 10.718 9.20273 11.1514C9.67844 11.5108 11.0104 12.1451 12.2684 12.4517L14.5201 17.674C14.7527 17.4414 15.0487 17.23 15.3976 17.082C15.7358 16.934 16.1058 16.8705 16.4441 16.8282L12.4059 7.31401L10.4607 8.13858ZM15.9578 11.6694L18.0298 16.5322L23.9815 13.9845L21.9201 9.13229" fill="#006D77"/>
</svg>
