<svg width="81" height="81" viewBox="0 0 81 81" fill="none" xmlns="http://www.w3.org/2000/svg">
<g clip-path="url(#clip0_1285_4580)">
<path d="M73.8333 3.83301H7.16672C3.48984 3.83301 0.5 6.82301 0.5 10.4997V57.1664C0.5 60.8431 3.48984 63.8331 7.16672 63.8331H30.5045C30.4327 66.4975 29.922 70.756 28.0212 72.7556C27.323 73.4913 26.5206 73.8331 25.5002 73.8331C24.5789 73.8331 23.8334 74.5786 23.8334 75.4999C23.8334 76.4211 24.5789 77.1666 25.5002 77.1666H55.5002C56.4214 77.1666 57.1669 76.4211 57.1669 75.4999C57.1669 74.5786 56.4214 73.8331 55.5002 73.8331C54.4797 73.8331 53.6772 73.4913 52.9791 72.7556C51.0783 70.756 50.5675 66.4975 50.4958 63.8331H73.8336C77.5103 63.8331 80.5003 60.8433 80.5003 57.1664V10.4997C80.5 6.82301 77.5102 3.83301 73.8333 3.83301ZM31.3952 73.833C33.4078 70.7472 33.7973 66.3036 33.8475 63.833H47.1523C47.2027 66.3038 47.592 70.7472 49.6047 73.833H31.3952ZM77.1667 57.1664C77.1667 59.0039 75.6709 60.4997 73.8334 60.4997H7.16672C5.32922 60.4997 3.83344 59.0039 3.83344 57.1664V50.4997H77.1667V57.1664ZM77.1667 47.1664H3.83328V10.4997C3.83328 8.66223 5.32906 7.16644 7.16656 7.16644H73.8333C75.6708 7.16644 77.1666 8.66223 77.1666 10.4997V47.1664H77.1667Z" fill="#667085"/>
<path d="M40.5 58.8326C42.3409 58.8326 43.8333 57.3402 43.8333 55.4993C43.8333 53.6584 42.3409 52.166 40.5 52.166C38.6591 52.166 37.1667 53.6584 37.1667 55.4993C37.1667 57.3402 38.6591 58.8326 40.5 58.8326Z" fill="#667085"/>
</g>
<defs>
<clipPath id="clip0_1285_4580">
<rect width="80" height="80" fill="white" transform="translate(0.5 0.5)"/>
</clipPath>
</defs>
</svg>
