<svg width="69" height="81" viewBox="0 0 69 81" fill="none" xmlns="http://www.w3.org/2000/svg">
<path d="M67.3741 14.3142C56.3671 11.2983 45.2954 6.60221 35.3559 0.733789C34.8279 0.42207 34.1727 0.42207 33.6449 0.733789C23.4187 6.77081 12.9453 11.2128 1.62577 14.3142C0.894524 14.5144 0.38765 15.1791 0.38765 15.9374V33.132C0.38765 50.8387 8.55623 62.5593 15.409 69.2735C22.7865 76.5024 31.3802 80.5 34.5004 80.5C37.6202 80.5 46.214 76.5024 53.5915 69.2735C60.4441 62.5594 68.6122 50.8388 68.6122 33.132V15.9372C68.6122 15.1791 68.1053 14.5144 67.3741 14.3142ZM65.2466 33.1318C65.2466 49.6698 57.6277 60.6065 51.2358 66.8693C43.981 73.9779 36.2243 77.1341 34.5004 77.1341C32.7765 77.1341 25.0193 73.9779 17.7643 66.8693C11.3726 60.6063 3.75342 49.6698 3.75342 33.1318V17.2147C14.5781 14.1413 24.659 9.85205 34.5007 4.13284C44.0966 9.70033 54.6805 14.2028 65.2466 17.2141V33.1318Z" fill="#667085"/>
<path d="M19.584 17.0265C19.2434 16.1617 18.2664 15.7368 17.4014 16.0776C14.3951 17.2621 11.3095 18.3524 8.23029 19.3184C7.52857 19.5387 7.05107 20.1887 7.05107 20.924V27.4226C7.05107 28.352 7.80466 29.1054 8.73388 29.1054C9.6631 29.1054 10.4167 28.352 10.4167 27.4226V22.1538C13.179 21.2601 15.9384 20.2715 18.6351 19.2088C19.5 18.8684 19.9248 17.8913 19.584 17.0265Z" fill="#667085"/>
<path d="M22.7807 17.3458C23.0065 17.3458 23.2357 17.3004 23.4556 17.2044L23.4865 17.191C24.3379 16.8179 24.7213 15.8268 24.3482 14.9757C23.9748 14.1243 22.9781 13.7391 22.1276 14.1119L22.1004 14.1237C21.2486 14.4957 20.8639 15.486 21.2359 16.3376C21.512 16.9698 22.1315 17.3458 22.7807 17.3458Z" fill="#667085"/>
<path d="M54.5502 54.7625C53.7726 54.2542 52.7298 54.4728 52.2208 55.2508C50.8341 57.3733 49.2073 59.4058 47.3848 61.2912C45.886 62.8416 44.2619 64.2866 42.5577 65.5858C41.8188 66.1492 41.6766 67.2052 42.2399 67.9444C42.5713 68.3786 43.0724 68.6071 43.5793 68.6071C43.9352 68.6071 44.2938 68.4947 44.5985 68.2622C46.4368 66.8605 48.1883 65.3022 49.8043 63.6306C51.7748 61.5925 53.5357 59.3925 55.0385 57.0917C55.5471 56.3136 55.3282 55.2708 54.5502 54.7625Z" fill="#667085"/>
<path d="M38.6496 68.2249L38.553 68.2818C37.7488 68.7476 37.474 69.777 37.9396 70.5812C38.2516 71.1203 38.8165 71.4212 39.3975 71.4212C39.6835 71.4212 39.9738 71.3482 40.2389 71.1943L40.3503 71.1289C41.1524 70.6592 41.4217 69.6284 40.952 68.8263C40.4821 68.0246 39.4511 67.7557 38.6496 68.2249Z" fill="#667085"/>
<path d="M23.0295 37.0656C21.9962 36.0322 20.622 35.4634 19.1604 35.4634C17.6989 35.4634 16.3245 36.0323 15.2908 37.0656C13.1575 39.1994 13.1575 42.6712 15.2908 44.8048L25.2276 54.7414C26.261 55.7745 27.6353 56.3434 29.097 56.3434C30.5587 56.3434 31.9329 55.7745 32.9665 54.7411L53.7104 33.997C55.8435 31.8628 55.8435 28.3914 53.7101 26.2584C52.6766 25.225 51.3024 24.6562 49.8405 24.6562C48.3788 24.6562 47.0046 25.2252 45.971 26.2584L29.0968 43.1326L23.0295 37.0656ZM48.351 28.6384C48.7487 28.2408 49.2779 28.0219 49.8407 28.0219C50.4038 28.0219 50.9326 28.2408 51.3305 28.6384C52.1516 29.4595 52.1516 30.7961 51.3302 31.6175L30.5867 52.3612C30.189 52.7589 29.6598 52.9778 29.097 52.9778C28.5342 52.9778 28.0049 52.7589 27.6071 52.3612L17.6706 42.425C16.8492 41.6036 16.8492 40.267 17.6703 39.4459C18.0681 39.0483 18.5973 38.829 19.1603 38.829C19.7232 38.829 20.2521 39.048 20.6498 39.4456L27.9068 46.7028C28.2226 47.0183 28.6504 47.1956 29.0968 47.1956C29.5432 47.1956 29.971 47.0184 30.2865 46.7028L48.351 28.6384Z" fill="#667085"/>
</svg>
