<svg width="81" height="81" viewBox="0 0 81 81" fill="none" xmlns="http://www.w3.org/2000/svg">
<g clip-path="url(#clip0_1285_3589)">
<path d="M72.1666 60.5H62.1666C61.2466 60.5 60.5 59.7533 60.5 58.8333C60.5 57.9133 61.2466 57.1667 62.1666 57.1667H72.1666C74.9233 57.1667 77.1666 54.9233 77.1666 52.1667V28.8333C77.1666 26.0767 74.9233 23.8333 72.1666 23.8333H8.83333C6.07666 23.8333 3.83333 26.0767 3.83333 28.8333V52.1667C3.83333 54.9233 6.07666 57.1667 8.83333 57.1667H18.8333C19.7533 57.1667 20.5 57.9133 20.5 58.8333C20.5 59.7533 19.7533 60.5 18.8333 60.5H8.83333C4.23667 60.5 0.5 56.76 0.5 52.1667V28.8333C0.5 24.24 4.23667 20.5 8.83333 20.5H72.1666C76.7633 20.5 80.5 24.24 80.5 28.8333V52.1667C80.5 56.76 76.7633 60.5 72.1666 60.5Z" fill="#667085"/>
<path d="M48.8333 70.5003H28.8333C27.9133 70.5003 27.1667 69.7536 27.1667 68.8336C27.1667 67.9137 27.9133 67.167 28.8333 67.167H48.8333C49.7533 67.167 50.5 67.9137 50.5 68.8336C50.5 69.7536 49.7533 70.5003 48.8333 70.5003Z" fill="#667085"/>
<path d="M48.8333 63.8333H28.8333C27.9133 63.8333 27.1667 63.0866 27.1667 62.1667C27.1667 61.2467 27.9133 60.5 28.8333 60.5H48.8333C49.7533 60.5 50.5 61.2467 50.5 62.1667C50.5 63.0866 49.7533 63.8333 48.8333 63.8333Z" fill="#667085"/>
<path d="M35.5 57.1663H28.8333C27.9133 57.1663 27.1667 56.4197 27.1667 55.4997C27.1667 54.5797 27.9133 53.833 28.8333 53.833H35.5C36.42 53.833 37.1667 54.5797 37.1667 55.4997C37.1667 56.4197 36.42 57.1663 35.5 57.1663Z" fill="#667085"/>
<path d="M62.1667 23.8333C61.2467 23.8333 60.5 23.0866 60.5 22.1667V8.83333C60.5 6.07666 58.2567 3.83333 55.5 3.83333H25.5C22.7433 3.83333 20.5 6.07666 20.5 8.83333V22.1667C20.5 23.0866 19.7533 23.8333 18.8333 23.8333C17.9133 23.8333 17.1667 23.0866 17.1667 22.1667V8.83333C17.1667 4.24 20.9033 0.5 25.5 0.5H55.5C60.0967 0.5 63.8333 4.24 63.8333 8.83333V22.1667C63.8333 23.0866 63.0867 23.8333 62.1667 23.8333Z" fill="#667085"/>
<path d="M55.5 80.4997H25.5C20.9033 80.4997 17.1667 76.7597 17.1667 72.1664V45.4997C17.1667 44.5797 17.9133 43.833 18.8333 43.833H62.1667C63.0867 43.833 63.8333 44.5797 63.8333 45.4997V72.1664C63.8333 76.7597 60.0967 80.4997 55.5 80.4997ZM20.5 47.1663V72.1664C20.5 74.923 22.7433 77.1664 25.5 77.1664H55.5C58.2567 77.1664 60.5 74.923 60.5 72.1664V47.1663H20.5Z" fill="#667085"/>
</g>
<defs>
<clipPath id="clip0_1285_3589">
<rect width="80" height="80" fill="white" transform="translate(0.5 0.5)"/>
</clipPath>
</defs>
</svg>
