<svg width="34" height="34" viewBox="0 0 34 34" fill="none" xmlns="http://www.w3.org/2000/svg">
<path d="M19.5242 33.9999C18.2552 33.9999 17.1004 33.4018 16.3442 32.3489C15.8589 31.6731 15.6024 30.876 15.6024 30.0441V3.84656C15.6024 3.70934 15.5707 3.57134 15.5103 3.4476L15.4644 3.35344C15.0649 2.53374 14.2906 2.64165 14.0626 2.69405C13.832 2.74723 13.0794 2.99366 13.0794 3.92723V23.4437C13.0794 25.0447 12.1212 26.4688 10.6385 27.0719C9.15576 27.6753 7.47511 27.3243 6.35762 26.178C5.64012 25.4421 5.24506 24.4709 5.24506 23.4434V11.5974C5.24506 10.7922 4.63054 10.4773 4.44221 10.3998C4.25363 10.3225 3.59502 10.1147 3.02927 10.6877C2.78828 10.9318 2.65573 11.2547 2.65573 11.5974V21.3853C2.65573 22.1187 2.06119 22.7132 1.32787 22.7132C0.594543 22.7132 0 22.1187 0 21.3853V11.5974C0 10.5518 0.404663 9.56606 1.13954 8.82184C2.28738 7.65947 3.9395 7.32251 5.45076 7.94326C6.96202 8.56348 7.90079 9.96398 7.90079 11.5974V23.4434C7.90079 23.7744 8.02815 24.0872 8.25902 24.3241C8.80894 24.888 9.45329 24.687 9.63798 24.612C9.82216 24.537 10.4237 24.2312 10.4237 23.4439V3.92723C10.4237 2.06189 11.646 0.526249 13.4654 0.10654C15.2776 -0.311611 17.0402 0.52547 17.8516 2.18978L17.8975 2.2842C18.1333 2.76824 18.2581 3.30857 18.2581 3.84682L18.2578 30.0443C18.2578 30.317 18.3421 30.5782 18.5011 30.7997C18.8329 31.2617 19.2575 31.3507 19.5559 31.3439C20.182 31.3297 20.8474 30.8695 20.8474 30.0446V28.1575C20.8474 27.4239 21.4419 26.8296 22.1753 26.8296C22.9086 26.8296 23.5031 27.4239 23.5031 28.1575V30.0446C23.5031 32.4645 21.5268 33.9556 19.616 33.9989C19.5854 33.9997 19.5548 33.9999 19.5242 33.9999ZM30.0771 27.3606C31.5479 27.3593 32.8418 26.5692 33.5383 25.247C33.8358 24.6815 33.9932 24.045 33.9932 23.4061V13.9491C33.9932 13.2158 33.3987 12.6213 32.6654 12.6213C31.9321 12.6213 31.3375 13.2158 31.3375 13.9491V23.4061C31.3375 23.6157 31.2859 23.8242 31.1884 24.0094C30.8859 24.5837 30.4159 24.7046 30.075 24.7049C30.0745 24.7049 30.0742 24.7049 30.0737 24.7049C29.7272 24.7049 29.3871 24.5767 29.1407 24.3531C28.8802 24.1166 28.7482 23.798 28.7482 23.4061V11.5966C28.7482 10.1347 27.9835 8.84104 26.7031 8.13599C25.4224 7.43094 23.9205 7.4766 22.685 8.25843C21.5343 8.98682 20.8474 10.2348 20.8474 11.5964V21.5179C20.8474 22.2515 21.4419 22.8458 22.1753 22.8458C22.9086 22.8458 23.5031 22.2515 23.5031 21.5179V11.5966C23.5031 11.1502 23.7283 10.7414 24.1055 10.5025C24.6889 10.1334 25.2206 10.3515 25.4222 10.4625C25.6237 10.5733 26.0925 10.9061 26.0925 11.5966V23.4061C26.0925 24.5456 26.5412 25.5803 27.356 26.3196C28.0852 26.9814 29.0753 27.3606 30.0737 27.3606H30.0771Z" fill="#101828"/>
</svg>
