<svg width="21" height="20" viewBox="0 0 21 20" fill="none" xmlns="http://www.w3.org/2000/svg">
<g clip-path="url(#clip0_380_3855)">
<path d="M20.2421 9.60348C19.5316 8.04978 16.7454 2.98328 10.6763 2.98328C4.60719 2.98328 1.82106 8.04978 1.11057 9.60348C1.01519 9.81169 0.96582 10.038 0.96582 10.267C0.96582 10.4961 1.01519 10.7224 1.11057 10.9306C1.82106 12.4827 4.60719 17.5492 10.6763 17.5492C16.7454 17.5492 19.5316 12.4827 20.2421 10.929C20.3372 10.721 20.3865 10.495 20.3865 10.2662C20.3865 10.0375 20.3372 9.81145 20.2421 9.60348ZM10.6763 15.9307C5.57259 15.9307 3.19106 11.5885 2.58415 10.2751C3.19106 8.94396 5.57259 4.60171 10.6763 4.60171C15.7679 4.60171 18.1502 8.92535 18.7685 10.2662C18.1502 11.6071 15.7679 15.9307 10.6763 15.9307Z" fill="#006D77"/>
<path d="M10.676 6.22009C9.87573 6.22009 9.09346 6.45739 8.42808 6.90198C7.76271 7.34657 7.24411 7.97848 6.93787 8.71781C6.63164 9.45713 6.55151 10.2707 6.70763 11.0555C6.86375 11.8404 7.2491 12.5613 7.81495 13.1272C8.38081 13.693 9.10175 14.0784 9.88662 14.2345C10.6715 14.3906 11.485 14.3105 12.2243 14.0043C12.9637 13.698 13.5956 13.1794 14.0402 12.5141C14.4847 11.8487 14.722 11.0664 14.722 10.2662C14.7208 9.19348 14.2941 8.16509 13.5356 7.40658C12.777 6.64807 11.7487 6.22138 10.676 6.22009ZM10.676 12.6938C10.1958 12.6938 9.72646 12.5514 9.32724 12.2847C8.92801 12.0179 8.61685 11.6388 8.43311 11.1952C8.24937 10.7516 8.20129 10.2635 8.29496 9.79257C8.38863 9.32165 8.61985 8.88908 8.95936 8.54957C9.29887 8.21006 9.73144 7.97884 10.2024 7.88517C10.6733 7.7915 11.1614 7.83958 11.605 8.02332C12.0486 8.20706 12.4277 8.51822 12.6945 8.91745C12.9612 9.31667 13.1036 9.78603 13.1036 10.2662C13.1036 10.91 12.8478 11.5275 12.3926 11.9828C11.9373 12.4381 11.3198 12.6938 10.676 12.6938Z" fill="#006D77"/>
</g>
<defs>
<clipPath id="clip0_380_3855">
<rect width="19.4212" height="19.4212" fill="white" transform="translate(0.96582 0.555603)"/>
</clipPath>
</defs>
</svg>
