<svg width="27" height="27" viewBox="0 0 27 27" fill="none" xmlns="http://www.w3.org/2000/svg">
<g clip-path="url(#clip0_1053_3024)">
<path d="M2.89064 7.19974H0.776367V12.4854H0.786939L0.776367 21.9997C0.776367 23.1625 1.72779 24.1139 2.89064 24.1139H21.9191V21.9997H2.89064V7.19974ZM24.0334 5.08547H15.5763L13.462 2.97119H7.11919C5.95634 2.97119 5.01549 3.92261 5.01549 5.08547L5.00492 17.7711C5.00492 18.934 5.95634 19.8854 7.11919 19.8854H24.0334C25.1962 19.8854 26.1477 18.934 26.1477 17.7711V7.19974C26.1477 6.03689 25.1962 5.08547 24.0334 5.08547ZM8.17633 16.714L12.9334 10.3712L16.6334 15.1388L19.2763 11.9569L22.9762 16.714H8.17633Z" fill="#006D77"/>
</g>
<defs>
<clipPath id="clip0_1053_3024">
<rect width="25.3713" height="25.3713" fill="white" transform="translate(0.776367 0.856934)"/>
</clipPath>
</defs>
</svg>
