<svg width="36" height="36" viewBox="0 0 36 36" fill="none" xmlns="http://www.w3.org/2000/svg">
<g clip-path="url(#clip0_380_4311)">
<path d="M28.7998 24.9926C26.666 24.9926 25.5646 25.7671 24.5932 26.4502C23.7398 27.05 23.0658 27.5238 21.5994 27.5238C20.1333 27.5238 19.4593 27.05 18.6062 26.4502C17.6347 25.7668 16.5333 24.9926 14.3995 24.9926C12.266 24.9926 11.1646 25.7671 10.1931 26.4502C9.34003 27.05 8.66602 27.5238 7.19989 27.5238C5.73376 27.5238 5.05975 27.05 4.20667 26.4502C3.23492 25.7671 2.13354 24.9926 0 24.9926V27.1019C1.4664 27.1019 2.14014 27.5757 2.99323 28.1758C3.96497 28.8589 5.06607 29.6332 7.19989 29.6332C9.33344 29.6332 10.4348 28.8589 11.4063 28.1758C12.2594 27.5757 12.9334 27.1019 14.3995 27.1019C15.8659 27.1019 16.5396 27.5757 17.393 28.1758C18.3645 28.8589 19.4659 29.6332 21.5994 29.6332C23.7332 29.6332 24.8346 28.8589 25.8063 28.1758C26.6594 27.576 27.3334 27.1019 28.7998 27.1019C30.2662 27.1019 30.94 27.5757 31.7933 28.1758C32.7648 28.8589 33.8662 29.6332 36 29.6332V27.5238C34.5336 27.5238 33.8596 27.05 33.0065 26.4502C32.0348 25.7671 30.9334 24.9926 28.7998 24.9926Z" fill="#101828"/>
<path d="M28.7998 12.5497C26.666 12.5497 25.5646 13.3239 24.5932 14.007C23.7398 14.6069 23.0658 15.0809 21.5994 15.0809C20.1333 15.0809 19.4593 14.6069 18.6062 14.007C17.6347 13.3239 16.5333 12.5497 14.3995 12.5497C12.266 12.5497 11.1646 13.3239 10.1931 14.007C9.34003 14.6069 8.66602 15.0809 7.19989 15.0809C5.73376 15.0809 5.05975 14.6069 4.20667 14.007C3.23492 13.3239 2.13354 12.5497 0 12.5497V14.6591C1.4664 14.6591 2.14014 15.1328 2.99323 15.7327C3.96497 16.416 5.06607 17.1903 7.19989 17.1903C9.33344 17.1903 10.4348 16.4158 11.4063 15.7327C12.2594 15.1328 12.9334 14.6591 14.3995 14.6591C15.8659 14.6591 16.5396 15.1328 17.393 15.7327C18.3645 16.416 19.4659 17.1903 21.5994 17.1903C23.7332 17.1903 24.8346 16.4158 25.8063 15.7327C26.6594 15.1328 27.3334 14.6591 28.7998 14.6591C30.2662 14.6591 30.94 15.1328 31.7933 15.7327C32.7648 16.416 33.8662 17.1903 36 17.1903V15.0809C34.5336 15.0809 33.8596 14.6069 33.0065 14.007C32.0348 13.3239 30.9334 12.5497 28.7998 12.5497Z" fill="#101828"/>
<path d="M28.7998 18.7712C26.666 18.7712 25.5646 19.5455 24.5932 20.2286C23.7398 20.8284 23.0658 21.3025 21.5994 21.3025C20.1333 21.3025 19.4593 20.8284 18.6062 20.2286C17.6347 19.5455 16.5333 18.7712 14.3995 18.7712C12.266 18.7712 11.1646 19.5455 10.1931 20.2286C9.34003 20.8284 8.66602 21.3025 7.19989 21.3025C5.73376 21.3025 5.05975 20.8284 4.20667 20.2286C3.23492 19.5455 2.13354 18.7712 0 18.7712V20.8806C1.4664 20.8806 2.14014 21.3544 2.99323 21.9543C3.96497 22.6373 5.06607 23.4119 7.19989 23.4119C9.33344 23.4119 10.4348 22.6373 11.4063 21.9543C12.2594 21.3544 12.9334 20.8806 14.3995 20.8806C15.8659 20.8806 16.5396 21.3544 17.393 21.9543C18.3645 22.6373 19.4659 23.4119 21.5994 23.4119C23.7332 23.4119 24.8346 22.6373 25.8063 21.9543C26.6594 21.3544 27.3334 20.8806 28.7998 20.8806C30.2662 20.8806 30.94 21.3544 31.7933 21.9543C32.7648 22.6373 33.8662 23.4119 36 23.4119V21.3025C34.5336 21.3025 33.8596 20.8284 33.0065 20.2286C32.0348 19.5455 30.9334 18.7712 28.7998 18.7712Z" fill="#101828"/>
<path d="M33.0065 7.78574C32.0348 7.10239 30.9334 6.32812 28.7998 6.32812C26.666 6.32812 25.5646 7.10239 24.5932 7.78574C23.7398 8.38559 23.0658 8.85938 21.5994 8.85938C20.1333 8.85938 19.4593 8.38559 18.6062 7.78574C17.6347 7.10239 16.5333 6.32812 14.3995 6.32812C12.266 6.32812 11.1646 7.10239 10.1931 7.78574C9.34003 8.38559 8.66602 8.85938 7.19989 8.85938C5.73376 8.85938 5.05975 8.38559 4.20667 7.78574C3.23492 7.10239 2.13354 6.32812 0 6.32812V8.4375C1.4664 8.4375 2.14014 8.91129 2.99323 9.51114C3.96497 10.1945 5.06607 10.9688 7.19989 10.9688C9.33344 10.9688 10.4348 10.1945 11.4063 9.51114C12.2594 8.91129 12.9334 8.4375 14.3995 8.4375C15.8659 8.4375 16.5396 8.91129 17.393 9.51114C18.3645 10.1945 19.4659 10.9688 21.5994 10.9688C23.7332 10.9688 24.8346 10.1945 25.8063 9.51114C26.6594 8.91129 27.3334 8.4375 28.7998 8.4375C30.2662 8.4375 30.94 8.91129 31.7933 9.51114C32.7648 10.1945 33.8662 10.9688 36 10.9688V8.85938C34.5336 8.85938 33.8596 8.38559 33.0065 7.78574Z" fill="#101828"/>
</g>
<defs>
<clipPath id="clip0_380_4311">
<rect width="36" height="36" fill="white"/>
</clipPath>
</defs>
</svg>
