<svg width="47" height="81" viewBox="0 0 47 81" fill="none" xmlns="http://www.w3.org/2000/svg">
<path d="M23.5 0.5C0.16672 0.5 0.166718 16.4131 0.166718 40.5C0.166718 64.5869 0.16672 80.5 23.5 80.5C46.8333 80.5 46.8333 64.5869 46.8333 40.5C46.8333 16.4131 46.8333 0.5 23.5 0.5ZM23.5 77.1667C4.26656 77.1667 3.5 66.5823 3.5 40.5C3.5 14.4177 4.26656 3.83328 23.5 3.83328C42.7335 3.83328 43.5 14.4177 43.5 40.5C43.5 66.5823 42.7335 77.1667 23.5 77.1667Z" fill="#667085"/>
<path d="M23.5 67.1666C25.3409 67.1666 26.8333 65.6742 26.8333 63.8333C26.8333 61.9924 25.3409 60.5 23.5 60.5C21.6591 60.5 20.1667 61.9924 20.1667 63.8333C20.1667 65.6742 21.6591 67.1666 23.5 67.1666Z" fill="#667085"/>
</svg>
