<svg width="31" height="31" viewBox="0 0 31 31" fill="none" xmlns="http://www.w3.org/2000/svg">
<path d="M28.7527 27.387L23.909 22.9017C26.069 20.4625 27.1996 17.281 27.0632 14.0257C26.9268 10.7704 25.5342 7.69457 23.1777 5.44448C20.8213 3.19439 17.6845 1.94511 14.4264 1.9591C11.1683 1.97309 8.04235 3.24925 5.70533 5.5195C3.36831 7.78974 2.0021 10.8774 1.8937 14.1337C1.7853 17.3901 2.94314 20.5617 5.12401 22.9824C7.30487 25.403 10.339 26.8843 13.589 27.1149C16.839 27.3455 20.0519 26.3076 22.5527 24.2192V24.2677L27.3965 28.782C27.4872 28.879 27.597 28.9563 27.7188 29.0091C27.8407 29.0619 27.9721 29.089 28.1049 29.0889C28.2377 29.0887 28.3691 29.0613 28.4909 29.0082C28.6126 28.9551 28.7222 28.8776 28.8127 28.7804C28.9032 28.6833 28.9728 28.5685 29.0171 28.4433C29.0614 28.3181 29.0795 28.1851 29.0702 28.0526C29.061 27.9201 29.0246 27.791 28.9633 27.6731C28.902 27.5553 28.8171 27.4513 28.714 27.3677L28.7527 27.387ZM14.5315 25.188C12.4239 25.188 10.3636 24.563 8.61119 23.3921C6.85878 22.2212 5.49294 20.5569 4.68639 18.6097C3.87985 16.6625 3.66882 14.5199 4.07999 12.4528C4.49116 10.3857 5.50607 8.48693 6.99638 6.99663C8.48668 5.50632 10.3854 4.49141 12.4526 4.08024C14.5197 3.66907 16.6623 3.88009 18.6095 4.68664C20.5566 5.49319 22.2209 6.85903 23.3918 8.61144C24.5628 10.3638 25.1877 12.4241 25.1877 14.5317C25.1877 17.3579 24.065 20.0684 22.0666 22.0668C20.0682 24.0653 17.3577 25.188 14.5315 25.188ZM21.7971 14.5317C21.7971 14.7887 21.695 15.0351 21.5134 15.2167C21.3317 15.3984 21.0853 15.5005 20.8284 15.5005H15.5002V20.8286C15.5002 21.0855 15.3982 21.3319 15.2165 21.5136C15.0348 21.6953 14.7884 21.7974 14.5315 21.7974C14.2746 21.7974 14.0282 21.6953 13.8465 21.5136C13.6648 21.3319 13.5627 21.0855 13.5627 20.8286V15.5005H8.23461C7.97768 15.5005 7.73128 15.3984 7.5496 15.2167C7.36792 15.0351 7.26586 14.7887 7.26586 14.5317C7.26586 14.2748 7.36792 14.0284 7.5496 13.8467C7.73128 13.665 7.97768 13.563 8.23461 13.563H13.5627V8.23486C13.5627 7.97793 13.6648 7.73152 13.8465 7.54985C14.0282 7.36817 14.2746 7.26611 14.5315 7.26611C14.7884 7.26611 15.0348 7.36817 15.2165 7.54985C15.3982 7.73152 15.5002 7.97793 15.5002 8.23486V13.563H20.8284C21.0853 13.563 21.3317 13.665 21.5134 13.8467C21.695 14.0284 21.7971 14.2748 21.7971 14.5317Z" fill="#667085"/>
</svg>
