<svg width="81" height="81" viewBox="0 0 81 81" fill="none" xmlns="http://www.w3.org/2000/svg">
<g clip-path="url(#clip0_1285_5361)">
<path d="M56.5 0.5H24.5C20.0905 0.5 16.5 4.09047 16.5 8.5V72.5C16.5 76.9128 20.0905 80.5 24.5 80.5H56.5C60.9128 80.5 64.5 76.9128 64.5 72.5V8.5C64.5 4.09047 60.9128 0.5 56.5 0.5ZM61.3 72.5C61.3 75.1464 59.1464 77.3 56.5 77.3H24.5C21.8536 77.3 19.7 75.1464 19.7 72.5V8.5C19.7 5.85359 21.8536 3.7 24.5 3.7H56.5C59.1464 3.7 61.3 5.85359 61.3 8.5V72.5Z" fill="#667085"/>
<path d="M43.7 6.90039H37.3C36.4167 6.90039 35.7 7.61727 35.7 8.50039C35.7 9.38352 36.4169 10.1004 37.3 10.1004H43.7C44.5831 10.1004 45.3 9.38352 45.3 8.50039C45.3 7.61727 44.5831 6.90039 43.7 6.90039Z" fill="#667085"/>
<path d="M40.5 70.9004C39.6169 70.9004 38.9 71.6173 38.9 72.5004C38.9 73.3835 39.6169 74.1004 40.5 74.1004C41.3831 74.1004 42.1 73.3835 42.1 72.5004C42.1 71.6173 41.3831 70.9004 40.5 70.9004Z" fill="#667085"/>
<path d="M62.9 13.2998H18.1C17.2167 13.2998 16.5 14.0167 16.5 14.8998C16.5 15.7831 17.2167 16.4998 18.1 16.4998H62.9C63.7831 16.4998 64.5 15.7829 64.5 14.8998C64.5 14.0167 63.7831 13.2998 62.9 13.2998Z" fill="#667085"/>
<path d="M62.9 64.5H18.1C17.2167 64.5 16.5 65.2169 16.5 66.1C16.5 66.9831 17.2167 67.7 18.1 67.7H62.9C63.7831 67.7 64.5 66.9831 64.5 66.1C64.5 65.2169 63.7831 64.5 62.9 64.5Z" fill="#667085"/>
</g>
<defs>
<clipPath id="clip0_1285_5361">
<rect width="80" height="80" fill="white" transform="translate(0.5 0.5)"/>
</clipPath>
</defs>
</svg>
