<svg width="9" height="6" viewBox="0 0 9 6" fill="none" xmlns="http://www.w3.org/2000/svg">
<path d="M1.10724 0.5H7.89276C8.01287 0.500028 8.13027 0.5387 8.23013 0.611128C8.32999 0.683555 8.40781 0.786487 8.45377 0.90691C8.49973 1.02733 8.51176 1.15984 8.48834 1.28768C8.46491 1.41552 8.40709 1.53295 8.32217 1.62513L4.92941 5.30702C4.81551 5.43058 4.66105 5.5 4.5 5.5C4.33895 5.5 4.18449 5.43058 4.07059 5.30702L0.67783 1.62513C0.592914 1.53295 0.535088 1.41552 0.511664 1.28768C0.488239 1.15984 0.500267 1.02733 0.546226 0.90691C0.592186 0.786487 0.670014 0.683555 0.769871 0.611128C0.869729 0.5387 0.987132 0.500028 1.10724 0.5Z" fill="#101828"/>
</svg>
