<svg width="81" height="81" viewBox="0 0 81 81" fill="none" xmlns="http://www.w3.org/2000/svg">
<g clip-path="url(#clip0_1285_4644)">
<path d="M45.9773 38.4386C46.2132 38.9 46.6826 39.1665 47.1679 39.1665C47.3705 39.1665 47.5785 39.1198 47.7719 39.0212C47.8505 38.9812 55.6986 34.9945 59.5692 33.7719C60.2706 33.5492 60.6598 32.7999 60.4371 32.0986C60.2157 31.3972 59.4718 31.0066 58.7639 31.228C54.6866 32.5174 46.8919 36.4773 46.5613 36.6453C45.9052 36.9786 45.644 37.7814 45.9773 38.4386Z" fill="#667085"/>
<path d="M47.1679 23.1675C47.3706 23.1675 47.5785 23.1208 47.772 23.0222C47.8506 22.9822 55.6986 18.9955 59.5692 17.7729C60.2706 17.5502 60.6598 16.8008 60.4372 16.0996C60.2158 15.3982 59.4719 15.0076 58.7639 15.229C54.6866 16.5183 46.892 20.4783 46.5614 20.6463C45.9054 20.9796 45.644 21.7822 45.9773 22.4395C46.2132 22.9008 46.6826 23.1675 47.1679 23.1675Z" fill="#667085"/>
<path d="M79.1663 20.5005C78.4289 20.5005 77.833 21.0978 77.833 21.8337V73.8333C77.833 76.0386 76.0383 77.8333 73.833 77.8333H41.8333V74.7654C43.7773 74.0854 48.8412 72.5001 53.8332 72.5001C65.4478 72.5001 73.3344 75.0721 73.413 75.0986C73.8143 75.2319 74.2624 75.1654 74.613 74.9146C74.961 74.664 75.1663 74.2613 75.1663 73.8332V15.1672C75.1663 14.5419 74.733 14.0005 74.1222 13.8658C74.1222 13.8658 73.0769 13.6326 71.2902 13.3044C70.5688 13.1712 69.8717 13.6512 69.7382 14.3738C69.6049 15.0991 70.0835 15.7938 70.8076 15.9271C71.489 16.0524 72.0596 16.163 72.4996 16.2511V72.0613C69.4782 71.2693 62.7691 69.8334 53.833 69.8334C48.0237 69.8334 42.3172 71.7413 40.5517 72.388C38.9824 71.6948 34.2385 69.8334 28.4998 69.8334C19.3158 69.8334 11.7506 71.348 8.49996 72.1174V16.1991C11.1626 15.5444 19.0266 13.8338 28.4998 13.8338C33.3612 13.8338 37.5304 15.3471 39.1664 16.0311V68.5001C39.1664 68.9801 39.425 69.4242 39.8424 69.6601C40.2597 69.8974 40.7744 69.8907 41.1864 69.6427C41.3184 69.5642 54.529 61.6734 66.2542 57.7655C66.7995 57.5828 67.1662 57.0749 67.1662 56.5002V1.83391C67.1662 1.39657 66.9515 0.987194 66.5915 0.737977C66.2342 0.488604 65.7756 0.431261 65.3636 0.584697C54.6957 4.58592 43.9012 11.3032 43.7931 11.3699C43.1691 11.7605 42.9784 12.5832 43.3691 13.2073C43.7584 13.8313 44.5811 14.0219 45.2064 13.6313C45.305 13.5687 54.6957 7.72605 64.4995 3.78342V55.5457C55.3982 58.7083 45.8956 63.8723 41.833 66.1842V15.1672C41.833 14.6619 41.5477 14.2005 41.0956 13.974C40.8663 13.8607 35.4024 11.1673 28.4998 11.1673C16.4519 11.1673 7.18935 13.774 6.79998 13.8858C6.22795 14.0485 5.83327 14.5726 5.83327 15.1672V73.8335C5.83327 74.2508 6.03061 74.6455 6.36264 74.8975C6.59732 75.0749 6.87998 75.1669 7.16669 75.1669C7.28935 75.1669 7.412 75.1496 7.532 75.1149C7.62403 75.0896 16.844 72.5002 28.4998 72.5002C33.3745 72.5002 37.5397 74.0176 39.1664 74.6988V77.8335H7.16669C4.9614 77.8335 3.16672 76.0388 3.16672 73.8335V21.8339C3.16672 21.098 2.56939 20.5006 1.83345 20.5006C1.09752 20.5006 0.500183 21.098 0.500183 21.8339V73.8335C0.500183 77.5094 3.49078 80.5002 7.16685 80.5002H73.833C77.5089 80.5002 80.4997 77.5096 80.4997 73.8335V21.8339C80.4995 21.0978 79.9036 20.5005 79.1663 20.5005Z" fill="#667085"/>
<path d="M45.9773 30.4386C46.2132 30.9 46.6826 31.1665 47.1679 31.1665C47.3705 31.1665 47.5785 31.1198 47.7719 31.0212C47.8505 30.9812 55.6986 26.9945 59.5692 25.7719C60.2706 25.5492 60.6598 24.7999 60.4371 24.0986C60.2157 23.3972 59.4718 23.0066 58.7639 23.228C54.6866 24.5174 46.8919 28.4773 46.5613 28.6453C45.9052 28.9786 45.644 29.7814 45.9773 30.4386Z" fill="#667085"/>
<path d="M45.9773 46.4386C46.2132 46.9 46.6826 47.1665 47.1679 47.1665C47.3705 47.1665 47.5785 47.1198 47.7719 47.0212C47.8505 46.9812 55.6986 42.9945 59.5692 41.7719C60.2706 41.5492 60.6598 40.7999 60.4371 40.0986C60.2157 39.3972 59.4718 39.0066 58.7639 39.228C54.6866 40.5174 46.8919 44.4773 46.5613 44.6453C45.9052 44.9786 45.644 45.7814 45.9773 46.4386Z" fill="#667085"/>
<path d="M32.8041 25.2446C24.5709 23.3125 15.2149 25.7739 14.8216 25.8793C14.111 26.0699 13.6883 26.8005 13.8789 27.5125C14.0389 28.1085 14.5775 28.5005 15.1656 28.5005C15.2803 28.5005 15.3963 28.4858 15.5124 28.4552C15.6017 28.4299 24.6096 26.0605 32.1963 27.8405C32.9096 28.0072 33.631 27.5631 33.7989 26.8458C33.9667 26.1299 33.5214 25.4125 32.8041 25.2446Z" fill="#667085"/>
<path d="M32.8041 33.244C24.5709 31.3133 15.2149 33.7733 14.8216 33.8786C14.111 34.0693 13.6883 34.8 13.8789 35.5119C14.0389 36.1078 14.5775 36.4999 15.1656 36.4999C15.2803 36.4999 15.3963 36.4852 15.5124 36.4546C15.6017 36.4292 24.6096 34.0599 32.1963 35.8399C32.9096 36.0066 33.631 35.5625 33.7989 34.8452C33.9667 34.1293 33.5214 33.4119 32.8041 33.244Z" fill="#667085"/>
<path d="M45.9773 54.4386C46.2132 54.9 46.6826 55.1665 47.1679 55.1665C47.3705 55.1665 47.5785 55.1198 47.7719 55.0212C47.8505 54.9812 55.6986 50.9945 59.5692 49.7719C60.2706 49.5492 60.6598 48.7999 60.4371 48.0986C60.2157 47.3974 59.4718 47.0066 58.7639 47.228C54.6866 48.5174 46.8919 52.4773 46.5613 52.6453C45.9052 52.9786 45.644 53.7814 45.9773 54.4386Z" fill="#667085"/>
<path d="M32.8041 41.2442C24.5709 39.3136 15.2149 41.7722 14.8216 41.8789C14.111 42.0695 13.6883 42.8003 13.8789 43.5121C14.0389 44.1081 14.5775 44.5015 15.1656 44.5015C15.2803 44.5015 15.3963 44.4856 15.5124 44.4548C15.6017 44.4295 24.6096 42.0601 32.1963 43.8401C32.9096 44.0068 33.631 43.5628 33.7989 42.8454C33.9667 42.1295 33.5214 41.4122 32.8041 41.2442Z" fill="#667085"/>
<path d="M32.8041 57.2446C24.5709 55.3126 15.2149 57.7739 14.8216 57.8792C14.111 58.0699 13.6883 58.8006 13.8789 59.5125C14.0389 60.1084 14.5775 60.5019 15.1656 60.5019C15.2803 60.5019 15.3963 60.4859 15.5124 60.4552C15.6017 60.4298 24.6096 58.0605 32.1963 59.8405C32.9096 60.0058 33.631 59.5631 33.7989 58.8458C33.9667 58.1299 33.5214 57.4125 32.8041 57.2446Z" fill="#667085"/>
<path d="M32.8041 49.2438C24.5709 47.3118 15.2149 49.7718 14.8216 49.8785C14.111 50.0691 13.6883 50.7999 13.8789 51.5118C14.0389 52.1077 14.5775 52.5011 15.1656 52.5011C15.2803 52.5011 15.3963 52.4852 15.5124 52.4544C15.6017 52.4291 24.6096 50.0598 32.1963 51.8397C32.9096 52.0065 33.631 51.5624 33.7989 50.8451C33.9667 50.1291 33.5214 49.4118 32.8041 49.2438Z" fill="#667085"/>
</g>
<defs>
<clipPath id="clip0_1285_4644">
<rect width="80" height="80" fill="white" transform="translate(0.5 0.5)"/>
</clipPath>
</defs>
</svg>
