<svg width="27" height="26" viewBox="0 0 27 26" fill="none" xmlns="http://www.w3.org/2000/svg">
<g clip-path="url(#clip0_402_4749)">
<path opacity="0.8" d="M15.7415 12.766C15.7415 14.1155 14.6475 15.2095 13.298 15.2095C11.9484 15.2095 10.8545 14.1155 10.8545 12.766C10.8545 11.4165 11.9484 10.3225 13.298 10.3225C14.6475 10.3225 15.7415 11.4165 15.7415 12.766Z" fill="#98A2B3"/>
<path opacity="0.8" d="M19.0123 8.44267C18.8948 8.12438 18.7074 7.83628 18.4639 7.5998C18.2275 7.35631 17.9396 7.16892 17.6211 7.05146C17.3628 6.95114 16.9748 6.83173 16.2601 6.7992C15.4869 6.76394 15.2551 6.75635 13.2978 6.75635C11.3404 6.75635 11.1086 6.76375 10.3356 6.79901C9.62093 6.83173 9.2327 6.95114 8.9746 7.05146C8.65612 7.16892 8.36802 7.35631 8.13173 7.5998C7.88824 7.83628 7.70085 8.12418 7.5832 8.44267C7.48288 8.70097 7.36347 9.08919 7.33094 9.80388C7.29568 10.5768 7.28809 10.8086 7.28809 12.7661C7.28809 14.7234 7.29568 14.9552 7.33094 15.7283C7.36347 16.443 7.48288 16.831 7.5832 17.0893C7.70085 17.4078 7.88805 17.6957 8.13154 17.9322C8.36802 18.1757 8.65592 18.3631 8.97441 18.4806C9.2327 18.5811 9.62093 18.7005 10.3356 18.733C11.1086 18.7683 11.3402 18.7757 13.2976 18.7757C15.2553 18.7757 15.4871 18.7683 16.2599 18.733C16.9746 18.7005 17.3628 18.5811 17.6211 18.4806C18.2604 18.2339 18.7657 17.7287 19.0123 17.0893C19.1126 16.831 19.232 16.443 19.2647 15.7283C19.3 14.9552 19.3074 14.7234 19.3074 12.7661C19.3074 10.8086 19.3 10.5768 19.2647 9.80388C19.2322 9.08919 19.1128 8.70097 19.0123 8.44267ZM13.2978 16.5301C11.2188 16.5301 9.53347 14.8449 9.53347 12.7659C9.53347 10.6869 11.2188 9.00173 13.2978 9.00173C15.3767 9.00173 17.062 10.6869 17.062 12.7659C17.062 14.8449 15.3767 16.5301 13.2978 16.5301ZM17.2108 9.73259C16.725 9.73259 16.3312 9.33872 16.3312 8.85291C16.3312 8.36709 16.725 7.97322 17.2108 7.97322C17.6967 7.97322 18.0905 8.36709 18.0905 8.85291C18.0903 9.33872 17.6967 9.73259 17.2108 9.73259Z" fill="#98A2B3"/>
<path opacity="0.8" d="M13.2982 0C6.24882 0 0.532227 5.71659 0.532227 12.766C0.532227 19.8153 6.24882 25.5319 13.2982 25.5319C20.3475 25.5319 26.0641 19.8153 26.0641 12.766C26.0641 5.71659 20.3475 0 13.2982 0ZM20.5844 15.7882C20.549 16.5685 20.4249 17.1013 20.2437 17.5676C19.8629 18.5523 19.0845 19.3307 18.0998 19.7115C17.6337 19.8927 17.1007 20.0165 16.3206 20.0522C15.5389 20.0878 15.2892 20.0964 13.2984 20.0964C11.3074 20.0964 11.0579 20.0878 10.276 20.0522C9.49582 20.0165 8.96287 19.8927 8.49673 19.7115C8.00741 19.5274 7.56445 19.2389 7.19824 18.8659C6.82541 18.4999 6.53692 18.0567 6.35284 17.5676C6.17168 17.1015 6.0476 16.5685 6.01215 15.7884C5.97611 15.0065 5.96773 14.7567 5.96773 12.766C5.96773 10.7752 5.97611 10.5254 6.01195 9.74374C6.0474 8.9634 6.17129 8.43064 6.35245 7.96431C6.53653 7.47518 6.82521 7.03203 7.19824 6.66601C7.56426 6.29298 8.00741 6.0045 8.49654 5.82042C8.96287 5.63926 9.49563 5.51537 10.276 5.47972C11.0577 5.44408 11.3074 5.43551 13.2982 5.43551C15.289 5.43551 15.5387 5.44408 16.3204 5.47992C17.1007 5.51537 17.6335 5.63926 18.0998 5.82022C18.589 6.0043 19.0321 6.29298 19.3983 6.66601C19.7712 7.03222 20.0598 7.47518 20.2437 7.96431C20.4251 8.43064 20.549 8.9634 20.5846 9.74374C20.6203 10.5254 20.6286 10.7752 20.6286 12.766C20.6286 14.7567 20.6203 15.0065 20.5844 15.7882Z" fill="#98A2B3"/>
</g>
<defs>
<clipPath id="clip0_402_4749">
<rect width="25.5319" height="25.5319" fill="white" transform="translate(0.532227)"/>
</clipPath>
</defs>
</svg>
