<svg width="73" height="71" viewBox="0 0 73 71" fill="none" xmlns="http://www.w3.org/2000/svg">
<path d="M11.872 60.2052C12.8378 60.2052 13.6206 59.4223 13.6206 58.4566C13.6206 57.4909 12.8378 56.708 11.872 56.708C10.9063 56.708 10.1234 57.4909 10.1234 58.4566C10.1234 59.4223 10.9063 60.2052 11.872 60.2052Z" fill="#667085"/>
<path d="M18.9097 60.2052C19.8754 60.2052 20.6583 59.4223 20.6583 58.4566C20.6583 57.4909 19.8754 56.708 18.9097 56.708C17.944 56.708 17.1611 57.4909 17.1611 58.4566C17.1611 59.4223 17.944 60.2052 18.9097 60.2052Z" fill="#667085"/>
<path d="M25.9475 60.2052C26.9132 60.2052 27.6961 59.4223 27.6961 58.4566C27.6961 57.4909 26.9132 56.708 25.9475 56.708C24.9818 56.708 24.1989 57.4909 24.1989 58.4566C24.1989 59.4223 24.9818 60.2052 25.9475 60.2052Z" fill="#667085"/>
<path d="M72.4356 45.9619C72.435 45.946 72.4342 45.93 72.4328 45.9142C72.4316 45.9027 72.4298 45.8917 72.4283 45.8807C72.4012 45.6535 72.3002 45.4364 72.1284 45.2703L27.6408 2.24705C25.2183 -0.0763848 21.3567 0.0039282 19.0331 2.42627L18.1769 3.31893C17.7888 3.72362 17.8019 4.36643 18.2064 4.75471L27.5736 13.7467C27.9781 14.1352 28.6211 14.1221 29.0095 13.7174C29.3978 13.3127 29.3847 12.6699 28.9802 12.2814L20.3453 3.99252L20.4988 3.83268C22.047 2.2183 24.6203 2.16455 26.2316 3.71033L68.9109 44.9849H63.0481L31.5298 14.7288C31.1253 14.3403 30.4822 14.3536 30.0939 14.7581C29.7056 15.1627 29.7188 15.8057 30.1233 16.1941L61.6239 46.433V51.1944H58.595V47.4674C58.595 46.9064 58.1403 46.4517 57.5794 46.4517H5.3122C4.75126 46.4517 4.29657 46.9064 4.29657 47.4674V51.1944H1.57767C1.01673 51.1944 0.562042 51.6491 0.562042 52.21V60.5352C0.562042 63.3928 2.88704 65.7178 5.7447 65.7178H5.9822V67.8693C5.9822 69.2905 7.13829 70.4466 8.55954 70.4466H64.4406C65.8619 70.4466 67.018 69.2905 67.018 67.8693V65.7178H67.2555C70.1131 65.7178 72.4381 63.3928 72.4381 60.5352V52.21V46.0002C72.438 45.9869 72.4362 45.9749 72.4356 45.9619V45.9619ZM63.6553 47.016H70.4067V51.1946H63.6553V47.016ZM70.4067 60.5355C70.4067 62.2732 68.993 63.6869 67.2553 63.6869H55.9848C55.4239 63.6869 54.9692 64.1416 54.9692 64.7025C54.9692 65.2635 55.4239 65.7182 55.9848 65.7182H64.9866V67.8696C64.9866 68.1707 64.7416 68.4157 64.4405 68.4157H8.55954C8.25845 68.4157 8.01345 68.1707 8.01345 67.8696V65.7182H51.6442C52.2052 65.7182 52.6598 65.2635 52.6598 64.7025C52.6598 64.1416 52.2052 63.6869 51.6442 63.6869H5.7447C4.00704 63.6869 2.59329 62.2732 2.59329 60.5355V53.226H10.9775C11.5384 53.226 11.9931 52.7713 11.9931 52.2103C11.9931 51.6494 11.5384 51.1947 10.9775 51.1947H6.32782V48.4833H56.5639V51.1947H14.9342C14.3733 51.1947 13.9186 51.6494 13.9186 52.2103C13.9186 52.7713 14.3733 53.226 14.9342 53.226H70.4066V60.5355H70.4067Z" fill="#667085"/>
<path d="M13.927 43.0454C14.1048 43.402 14.4638 43.6082 14.8367 43.6082C14.9891 43.6082 15.1436 43.5738 15.2891 43.5013C15.7911 43.251 15.9953 42.6413 15.745 42.1393L12.1245 34.8764C11.8741 34.3742 11.2639 34.1701 10.7625 34.4204C10.2605 34.6707 10.0562 35.2804 10.3066 35.7824L13.927 43.0454Z" fill="#667085"/>
<path d="M31.2739 43.608C31.6469 43.608 32.006 43.4019 32.1836 43.0452L35.8041 35.7822C36.0544 35.2802 35.8502 34.6705 35.3481 34.4202C34.8467 34.1704 34.2366 34.374 33.9861 34.8762L30.3656 42.1391C30.1153 42.6411 30.3196 43.2508 30.8216 43.5012C30.967 43.5737 31.1216 43.608 31.2739 43.608Z" fill="#667085"/>
<path d="M24.071 40.3375V32.3115C24.071 31.7506 23.6163 31.2959 23.0553 31.2959C22.4944 31.2959 22.0397 31.7506 22.0397 32.3115V40.3375C22.0397 40.8984 22.4944 41.3531 23.0553 41.3531C23.6163 41.3531 24.071 40.8984 24.071 40.3375Z" fill="#667085"/>
</svg>
