<svg width="15" height="15" viewBox="0 0 15 15" fill="none" xmlns="http://www.w3.org/2000/svg">
<g clip-path="url(#clip0_424_6335)">
<path d="M9.53959 14.8047L6.03959 12.1797V9.19302L1.37292 3.94302V2.55469C1.37292 2.09056 1.5573 1.64544 1.88549 1.31725C2.21368 0.989062 2.6588 0.804688 3.12292 0.804688L12.4563 0.804688C12.9204 0.804688 13.3655 0.989062 13.6937 1.31725C14.0219 1.64544 14.2063 2.09056 14.2063 2.55469V3.94302L9.53959 9.19302V14.8047ZM7.20626 11.5964L8.37292 12.4714V8.74969L13.0396 3.49969V2.55469C13.0396 2.39998 12.9781 2.2516 12.8687 2.14221C12.7593 2.03281 12.611 1.97135 12.4563 1.97135H3.12292C2.96822 1.97135 2.81984 2.03281 2.71045 2.14221C2.60105 2.2516 2.53959 2.39998 2.53959 2.55469V3.49969L7.20626 8.74969V11.5964Z" fill="#006D77"/>
</g>
<defs>
<clipPath id="clip0_424_6335">
<rect x="0.789551" y="0.804688" width="14" height="14" fill="white"/>
</clipPath>
</defs>
</svg>
