<svg width="81" height="81" viewBox="0 0 81 81" fill="none" xmlns="http://www.w3.org/2000/svg">
<g clip-path="url(#clip0_1285_3613)">
<path d="M27.1667 21.833C24.2212 21.833 21.8334 24.2208 21.8334 27.1663V53.833C21.8334 56.7785 24.2212 59.1663 27.1667 59.1663H53.8334C56.7789 59.1663 59.1667 56.7785 59.1667 53.833V27.1664C59.1667 24.221 56.7789 21.8332 53.8334 21.8332H27.1667V21.833ZM56.5 27.1664V53.8332C56.5 55.306 55.3061 56.4999 53.8333 56.4999H27.1667C25.6939 56.4999 24.5 55.306 24.5 53.8332V27.1664C24.5 25.6936 25.6939 24.4997 27.1667 24.4997H53.8334C55.3061 24.4997 56.5 25.6936 56.5 27.1664V27.1664Z" fill="#667085"/>
<path d="M49.8333 0.5H31.1667C28.9577 0.5 27.1667 2.29094 27.1667 4.5V7.16672C27.1667 12.42 25.8453 15.3253 24.8841 16.752C19.9939 17.8295 16.5084 22.1592 16.5 27.1667V32.5H15.1667C12.9577 32.5 11.1667 34.2909 11.1667 36.5V44.5C11.1667 46.7091 12.9577 48.5 15.1667 48.5H16.5V53.8333C16.5083 58.8408 19.9937 63.1705 24.8841 64.248C25.8455 65.6747 27.1667 68.58 27.1667 73.8333V76.5C27.1667 78.7091 28.9577 80.5 31.1667 80.5H49.8334C52.0427 80.5 53.8334 78.7092 53.8334 76.5V73.8333C53.8334 68.58 55.1548 65.6747 56.1161 64.248C61.0063 63.1705 64.4917 58.8408 64.5002 53.8333V37.8333H65.8334C68.0425 37.8333 69.8334 36.0423 69.8334 33.8333V31.1666C69.8334 28.9575 68.0425 27.1666 65.8334 27.1666H64.5C64.4917 22.1591 61.0063 17.8294 56.1159 16.7519C55.1545 15.3252 53.8333 12.4198 53.8333 7.16656V4.5C53.8333 2.29094 52.0425 0.5 49.8333 0.5V0.5ZM29.8333 7.16672V4.5C29.8333 3.76359 30.4303 3.16672 31.1666 3.16672H49.8333C50.5697 3.16672 51.1666 3.76375 51.1666 4.5V7.16672C51.0627 10.37 51.6664 13.5567 52.9345 16.5H28.0653C29.3336 13.5567 29.9372 10.3698 29.8333 7.16672V7.16672ZM15.1667 45.8333C14.4303 45.8333 13.8334 45.2363 13.8334 44.5V36.5C13.8334 35.7636 14.4305 35.1667 15.1667 35.1667H16.5V45.8334H15.1667V45.8333ZM51.1667 73.8333V76.5C51.1667 77.2364 50.5697 77.8333 49.8334 77.8333H31.1667C30.4303 77.8333 29.8334 77.2364 29.8334 76.5V73.8333C29.9373 70.63 29.3336 67.4433 28.0655 64.5H52.9348C51.6664 67.4433 51.0628 70.6302 51.1667 73.8333ZM65.8333 29.8333C66.5697 29.8333 67.1666 30.4303 67.1666 31.1666V33.8333C67.1666 34.5697 66.5697 35.1666 65.8333 35.1666H64.5V29.8333H65.8333ZM61.8333 27.1667V53.8334C61.8289 58.2498 58.2497 61.8291 53.8333 61.8334H27.1667C22.7503 61.8291 19.1711 58.2498 19.1667 53.8334V27.1667C19.1711 22.7503 22.7503 19.1711 27.1667 19.1667H53.8334C58.2498 19.1711 61.8289 22.7502 61.8333 27.1667Z" fill="#667085"/>
<path d="M33.4426 35.5573C32.922 35.0369 32.078 35.0369 31.5573 35.5573L27.5573 39.5574C27.0369 40.078 27.0369 40.922 27.5573 41.4427L31.5573 45.4427C32.0805 45.948 32.9122 45.9408 33.4264 45.4264C33.9408 44.9121 33.948 44.0805 33.4426 43.5574L30.3853 40.5L33.4426 37.4427C33.9631 36.922 33.9631 36.078 33.4426 35.5573Z" fill="#667085"/>
<path d="M49.4427 35.5569C48.9195 35.0516 48.0878 35.0588 47.5736 35.5732C47.0592 36.0875 47.052 36.9191 47.5573 37.4422L50.6147 40.4996L47.5573 43.5569C47.2108 43.8916 47.0717 44.3874 47.1938 44.8536C47.3158 45.3199 47.6798 45.6839 48.1459 45.8058C48.612 45.9278 49.1078 45.7888 49.4427 45.4422L53.4427 41.4422C53.9632 40.9216 53.9632 40.0775 53.4427 39.5569L49.4427 35.5569Z" fill="#667085"/>
<path d="M42.0573 35.7596L36.7241 43.7596C36.3153 44.3723 36.4808 45.2003 37.0934 45.609C37.7061 46.0178 38.5341 45.8523 38.9428 45.2396L44.2761 37.2396C44.5404 36.8433 44.5733 36.336 44.3623 35.9088C44.1512 35.4816 43.7284 35.1996 43.2529 35.1688C42.7775 35.138 42.3217 35.3633 42.0573 35.7596V35.7596Z" fill="#667085"/>
</g>
<defs>
<clipPath id="clip0_1285_3613">
<rect width="80" height="80" fill="white" transform="translate(0.5 0.5)"/>
</clipPath>
</defs>
</svg>
