<svg width="81" height="73" viewBox="0 0 81 73" fill="none" xmlns="http://www.w3.org/2000/svg">
<path fill-rule="evenodd" clip-rule="evenodd" d="M71.8986 41.6841V40.3594C71.8986 32.0137 68.6209 24.1406 62.6694 18.1889C56.7178 12.2372 48.8453 8.96125 40.5 8.96125C32.1547 8.96125 24.2813 12.2389 18.3314 18.1891C12.3816 24.1392 9.10219 32.0139 9.10219 40.3594V41.6839C6.68346 42.3732 4.54649 43.8135 3 45.7969V40.3594C3 19.6816 19.8225 2.85937 40.5 2.85937C61.1775 2.85937 78.0009 19.6819 78.0009 40.3594V45.7969C76.4541 43.8137 74.3169 42.3735 71.8981 41.6842L71.8986 41.6841ZM78.0014 60.8267V53.0515C77.9984 50.5821 77.0161 48.2146 75.2698 46.4685C73.5236 44.7224 71.156 43.7403 68.6866 43.7375H65.65V70.1406H68.6866C71.156 70.1378 73.5235 69.1556 75.2698 67.4095C77.016 65.6634 77.9984 63.296 78.0014 60.8265V60.8267ZM59.3711 69.397C59.3736 69.5933 59.4526 69.7809 59.5914 69.9198C59.7301 70.0587 59.9176 70.138 60.1139 70.1408H63.1506V43.7375H60.1139C59.9176 43.7402 59.7301 43.8194 59.5914 43.9583C59.4526 44.0972 59.3736 44.2848 59.3711 44.4811V69.397ZM50.435 16.2175C51.7413 16.2123 52.9932 15.6937 53.9205 14.7736C49.7817 12.5981 45.176 11.4614 40.5003 11.4614C35.8246 11.4614 31.219 12.5981 27.0802 14.7736C28.0074 15.6939 29.2594 16.2125 30.5658 16.2175H50.435ZM15.3502 43.7375H12.3142C9.84481 43.7403 7.47734 44.7224 5.73119 46.4686C3.98504 48.2147 3.00281 50.5821 3 53.0515V60.8267C3.00289 63.2961 3.98515 65.6635 5.73129 67.4095C7.47742 69.1556 9.84485 70.1378 12.3142 70.1406H15.3502V43.7375ZM21.6297 44.4811C21.6271 44.2847 21.548 44.097 21.4091 43.9581C21.2702 43.8192 21.0825 43.74 20.8861 43.7375H17.8502V70.1406H20.8861C21.0825 70.138 21.2702 70.0588 21.4091 69.9199C21.548 69.781 21.6271 69.5933 21.6297 69.3969V44.4811ZM68.7522 12.1078C61.1753 4.53125 51.1427 0.359375 40.5 0.359375C29.8573 0.359375 19.8255 4.53125 12.2486 12.1078C4.67172 19.6844 0.5 29.7173 0.5 40.3594V60.8265C0.503722 63.9587 1.74963 66.9615 3.96442 69.1763C6.17922 71.3911 9.18205 72.6369 12.3142 72.6406H20.8861C21.7461 72.6397 22.5706 72.2976 23.1788 71.6895C23.7869 71.0814 24.1289 70.2569 24.1298 69.3969V44.4811C24.1289 43.6211 23.7869 42.7965 23.1788 42.1884C22.5706 41.5803 21.7461 41.2382 20.8861 41.2373H12.3142C12.0753 41.2373 11.8373 41.247 11.6022 41.2609V40.3594C11.6043 35.5222 12.8204 30.763 15.139 26.5178C17.4577 22.2726 20.8047 18.6773 24.8734 16.0612C25.5736 16.8894 26.4452 17.5558 27.4279 18.0144C28.4107 18.473 29.4813 18.7129 30.5658 18.7175H50.435C51.5194 18.7128 52.5898 18.4729 53.5724 18.0143C54.555 17.5557 55.4265 16.8893 56.1266 16.0612C60.1955 18.6771 63.5427 22.2724 65.8615 26.5176C68.1803 30.7628 69.3965 35.5222 69.3986 40.3594V41.2608C69.1627 41.2469 68.9253 41.2372 68.6866 41.2372H60.1139C59.254 41.2381 58.4295 41.5802 57.8216 42.1883C57.2136 42.7965 56.8717 43.621 56.8709 44.4809V69.397C56.8716 70.257 57.2135 71.0815 57.8215 71.6896C58.4295 72.2978 59.254 72.6398 60.1139 72.6408H68.6866C71.8187 72.6371 74.8214 71.3912 77.0361 69.1764C79.2507 66.9616 80.4965 63.9588 80.5 60.8267V40.3594C80.5 29.7173 76.3281 19.6847 68.7522 12.1078V12.1078Z" fill="#667085"/>
</svg>
