<svg width="17" height="16" viewBox="0 0 17 16" fill="none" xmlns="http://www.w3.org/2000/svg">
<g clip-path="url(#clip0_419_5589)">
<path d="M7.75545 7.33333H0.422119V2C0.422119 1.46957 0.632833 0.960859 1.00791 0.585786C1.38298 0.210714 1.89169 0 2.42212 0L7.75545 0V7.33333ZM1.75545 6H6.42212V1.33333H2.42212C2.24531 1.33333 2.07574 1.40357 1.95071 1.5286C1.82569 1.65362 1.75545 1.82319 1.75545 2V6Z" fill="#667085"/>
<path d="M16.4221 7.33333H9.08878V0H14.4221C14.9525 0 15.4612 0.210714 15.8363 0.585786C16.2114 0.960859 16.4221 1.46957 16.4221 2V7.33333ZM10.4221 6H15.0888V2C15.0888 1.82319 15.0185 1.65362 14.8935 1.5286C14.7685 1.40357 14.5989 1.33333 14.4221 1.33333H10.4221V6Z" fill="#667085"/>
<path d="M7.75545 16.0003H2.42212C1.89169 16.0003 1.38298 15.7896 1.00791 15.4145C0.632833 15.0395 0.422119 14.5308 0.422119 14.0003L0.422119 8.66699H7.75545V16.0003ZM1.75545 10.0003V14.0003C1.75545 14.1771 1.82569 14.3467 1.95071 14.4717C2.07574 14.5968 2.24531 14.667 2.42212 14.667H6.42212V10.0003H1.75545Z" fill="#667085"/>
<path d="M14.4221 16.0003H9.08878V8.66699H16.4221V14.0003C16.4221 14.5308 16.2114 15.0395 15.8363 15.4145C15.4612 15.7896 14.9525 16.0003 14.4221 16.0003ZM10.4221 14.667H14.4221C14.5989 14.667 14.7685 14.5968 14.8935 14.4717C15.0185 14.3467 15.0888 14.1771 15.0888 14.0003V10.0003H10.4221V14.667Z" fill="#667085"/>
</g>
<defs>
<clipPath id="clip0_419_5589">
<rect width="16" height="16" fill="white" transform="translate(0.422119)"/>
</clipPath>
</defs>
</svg>
