<svg width="27" height="21" viewBox="0 0 27 21" fill="none" xmlns="http://www.w3.org/2000/svg">
<g clip-path="url(#clip0_386_3950)">
<path d="M20.5202 9.38657C17.365 9.38657 14.8116 11.9134 14.8116 15.0356C14.8116 18.1579 17.365 20.6847 20.5202 20.6847C23.6753 20.6847 26.2287 18.1579 26.2287 15.0356C26.2287 11.9134 23.6753 9.38657 20.5202 9.38657ZM23.0573 15.2824C23.0573 15.4919 22.8841 15.6633 22.6724 15.6633H20.2712C20.0595 15.6633 19.8863 15.4919 19.8863 15.2824V12.2786C19.8863 12.0691 20.0595 11.8977 20.2712 11.8977H20.7695C20.9812 11.8977 21.1545 12.0691 21.1545 12.2786V14.408H22.6724C22.8841 14.408 23.0573 14.5794 23.0573 14.7889V15.2824ZM20.5202 8.13122C20.7342 8.13122 20.9451 8.14417 21.1545 8.163V6.2482C21.1545 5.24392 20.2665 4.36517 19.2516 4.36517H16.0802V2.48215C16.0802 1.47787 15.1922 0.599121 14.1773 0.599121H7.83453C6.81967 0.599121 5.93168 1.47787 5.93168 2.48215V4.36517H2.76027C1.74542 4.36517 0.857422 5.24392 0.857422 6.2482V9.38657H16.521C17.6548 8.59845 19.0324 8.13122 20.5202 8.13122ZM13.5431 4.36517H8.46881V3.10982H13.5431V4.36517ZM13.8134 13.1526H9.10309C8.75265 13.1526 8.46881 12.8717 8.46881 12.5249V10.6419H0.857422V16.291C0.857422 17.2953 1.74542 18.174 2.76027 18.174H14.3133C13.8245 17.2309 13.5431 16.1662 13.5431 15.0356C13.5431 14.3821 13.6414 13.7521 13.8134 13.1526Z" fill="#006D77"/>
</g>
<defs>
<clipPath id="clip0_386_3950">
<rect width="25.3713" height="20.0856" fill="white" transform="translate(0.857422 0.599121)"/>
</clipPath>
</defs>
</svg>
