<svg width="27" height="27" viewBox="0 0 27 27" fill="none" xmlns="http://www.w3.org/2000/svg">
<path d="M13.462 2.97119C7.6266 2.97119 2.89062 7.70717 2.89062 13.5426C2.89062 19.378 7.6266 24.1139 13.462 24.1139C19.2974 24.1139 24.0334 19.378 24.0334 13.5426C24.0334 7.70717 19.2974 2.97119 13.462 2.97119ZM13.462 6.1426C15.2168 6.1426 16.6334 7.55917 16.6334 9.31401C16.6334 11.0689 15.2168 12.4854 13.462 12.4854C11.7071 12.4854 10.2906 11.0689 10.2906 9.31401C10.2906 7.55917 11.7071 6.1426 13.462 6.1426ZM13.462 21.154C12.206 21.154 10.9695 20.8431 9.86274 20.2492C8.75602 19.6552 7.81348 18.7967 7.11917 17.75C7.15089 15.6463 11.3477 14.494 13.462 14.494C15.5657 14.494 19.7731 15.6463 19.8048 17.75C19.1105 18.7967 18.168 19.6552 17.0613 20.2492C15.9545 20.8431 14.718 21.154 13.462 21.154Z" fill="#006D77"/>
</svg>
