<svg width="12" height="20" viewBox="0 0 12 20" fill="none" xmlns="http://www.w3.org/2000/svg">
<path d="M10.6314 0.475071L11.548 1.43767C11.8493 1.77124 12 2.16084 12 2.60556C12 3.05945 11.8493 3.44442 11.548 3.76109L5.60884 9.99996L11.5478 16.2388C11.8491 16.5554 11.9998 16.9405 11.9998 17.3942C11.9998 17.8391 11.8491 18.2286 11.5478 18.5622L10.6312 19.5122C10.3218 19.8375 9.95099 20 9.51917 20C9.07931 20 8.71272 19.8373 8.41949 19.5123L0.464304 11.1554C0.154852 10.8472 5.36766e-07 10.4623 5.1656e-07 10C4.96734e-07 9.54642 0.15481 9.15696 0.464303 8.83202L8.41949 0.475115C8.72098 0.158447 9.08753 1.27308e-07 9.51917 1.0844e-07C9.94295 -4.37791e-05 10.3135 0.158402 10.6314 0.475071Z" fill="#101828"/>
</svg>
