<svg width="36" height="36" viewBox="0 0 36 36" fill="none" xmlns="http://www.w3.org/2000/svg">
<path d="M20.2411 3.59887V2.24065C20.2411 1.00315 19.2379 0 18.0004 0C16.7629 0 15.7598 1.00315 15.7598 2.24065V3.59887C16.4904 3.48567 17.2386 3.42661 18.0004 3.42661C18.7622 3.42661 19.5105 3.48567 20.2411 3.59887Z" fill="#101828"/>
<path d="M29.7625 9.40645L30.7282 8.44077C31.6032 7.56574 31.6032 6.14704 30.7282 5.272C29.8532 4.39696 28.4345 4.39696 27.5594 5.272L26.5938 6.23767C27.8052 7.12523 28.875 8.19496 29.7625 9.40645Z" fill="#101828"/>
<path d="M33.7596 15.7594H32.4014C32.5146 16.49 32.5736 17.2383 32.5736 18C32.5736 18.7618 32.5146 19.5101 32.4014 20.2407H33.7596C34.9971 20.2407 36.0002 19.2375 36.0002 18C36.0002 16.7625 34.9971 15.7594 33.7596 15.7594Z" fill="#101828"/>
<path d="M26.5938 29.7623L27.5594 30.728C28.4345 31.603 29.8532 31.603 30.7282 30.728C31.6032 29.8529 31.6032 28.4342 30.7282 27.5592L29.7625 26.5935C28.875 27.805 27.8052 28.8747 26.5938 29.7623Z" fill="#101828"/>
<path d="M15.7598 32.4011V33.7593C15.7598 34.9968 16.7629 36 18.0004 36C19.2379 36 20.2411 34.9968 20.2411 33.7593V32.4011C19.5104 32.5143 18.7622 32.5734 18.0004 32.5734C17.2386 32.5734 16.4903 32.5143 15.7598 32.4011Z" fill="#101828"/>
<path d="M6.23816 26.5935L5.27249 27.5592C4.39745 28.4342 4.39745 29.8529 5.27249 30.728C6.14753 31.603 7.56622 31.603 8.44126 30.728L9.40694 29.7623C8.19545 28.8747 7.12572 27.805 6.23816 26.5935Z" fill="#101828"/>
<path d="M3.59887 15.7594H2.24065C1.00315 15.7594 0 16.7625 0 18C0 19.2375 1.00315 20.2407 2.24065 20.2407H3.59887C3.48567 19.5101 3.42661 18.7618 3.42661 18C3.42661 17.2383 3.48567 16.4899 3.59887 15.7594Z" fill="#101828"/>
<path d="M9.40694 6.23767L8.44126 5.272C7.56622 4.39696 6.14753 4.39696 5.27249 5.272C4.39745 6.14704 4.39745 7.56574 5.27249 8.44077L6.23816 9.40645C7.12572 8.19496 8.19545 7.12523 9.40694 6.23767Z" fill="#101828"/>
<path d="M19.0547 13.7126C19.4942 13.8208 19.9084 13.9941 20.2854 14.2231L22.8467 11.6618C21.7659 10.8334 20.4682 10.2746 19.0547 10.0872V13.7126Z" fill="#101828"/>
<path d="M21.7773 15.7146C22.0064 16.0916 22.1797 16.5058 22.2878 16.9453H25.9133C25.7259 15.5319 25.1671 14.2341 24.3386 13.1533L21.7773 15.7146Z" fill="#101828"/>
<path d="M22.2878 19.0547C22.1797 19.4942 22.0064 19.9084 21.7773 20.2854L24.3386 22.8467C25.167 21.7659 25.7258 20.4682 25.9133 19.0547H22.2878Z" fill="#101828"/>
<path d="M16.9453 22.2874C16.5058 22.1793 16.0916 22.006 15.7146 21.777L13.1533 24.3382C14.2342 25.1667 15.5319 25.7254 16.9453 25.9129V22.2874Z" fill="#101828"/>
<path d="M5.53613 18C5.53613 24.8727 11.1275 30.464 18.0001 30.464C24.8728 30.464 30.4642 24.8727 30.4642 18C30.4642 11.1273 24.8728 5.53601 18.0001 5.53601C11.1275 5.53601 5.53613 11.1273 5.53613 18ZM28.0922 18C28.0922 23.5648 23.5649 28.092 18.0001 28.092C12.4354 28.092 7.90812 23.5648 7.90812 18C7.90812 12.4352 12.4353 7.908 18.0001 7.908C23.565 7.908 28.0922 12.4352 28.0922 18Z" fill="#101828"/>
<path d="M20.2854 21.777C19.9084 22.006 19.4942 22.1793 19.0547 22.2874V25.9129C20.4682 25.7255 21.7659 25.1667 22.8467 24.3382L20.2854 21.777Z" fill="#101828"/>
<path d="M17.9997 20.3064C19.2734 20.3064 20.306 19.2738 20.306 18C20.306 16.7263 19.2734 15.6937 17.9997 15.6937C16.7259 15.6937 15.6934 16.7263 15.6934 18C15.6934 19.2738 16.7259 20.3064 17.9997 20.3064Z" fill="#101828"/>
<path d="M14.2228 20.2854C13.9938 19.9084 13.8205 19.4942 13.7124 19.0547H10.0869C10.2743 20.4682 10.8331 21.7659 11.6616 22.8467L14.2228 20.2854Z" fill="#101828"/>
<path d="M13.7124 16.9453C13.8205 16.5058 13.9938 16.0916 14.2228 15.7146L11.6616 13.1533C10.8331 14.2342 10.2744 15.5319 10.0869 16.9453H13.7124Z" fill="#101828"/>
<path d="M15.7146 14.2231C16.0916 13.9941 16.5058 13.8208 16.9453 13.7126V10.0872C15.5319 10.2745 14.2341 10.8333 13.1533 11.6618L15.7146 14.2231Z" fill="#101828"/>
</svg>
