<svg width="17" height="16" viewBox="0 0 17 16" fill="none" xmlns="http://www.w3.org/2000/svg">
<g clip-path="url(#clip0_459_7186)">
<path d="M16.4736 2H3.30163L3.27363 1.766C3.21633 1.27961 2.98256 0.831155 2.61663 0.505652C2.2507 0.180149 1.77805 0.000227862 1.2883 0L0.473633 0V1.33333H1.2883C1.45159 1.33335 1.60919 1.3933 1.73121 1.50181C1.85324 1.61032 1.93119 1.75983 1.9503 1.922L3.00697 10.9007C3.06427 11.3871 3.29804 11.8355 3.66397 12.161C4.0299 12.4865 4.50255 12.6664 4.9923 12.6667H13.807V11.3333H4.9923C4.82891 11.3333 4.67122 11.2733 4.54918 11.1646C4.42714 11.056 4.34925 10.9063 4.3303 10.744L4.24297 10H15.031L16.4736 2ZM13.9163 8.66667H4.0863L3.45897 3.33333H14.8783L13.9163 8.66667Z" fill="#006D77"/>
<path d="M5.14046 15.9997C5.87684 15.9997 6.4738 15.4027 6.4738 14.6663C6.4738 13.93 5.87684 13.333 5.14046 13.333C4.40408 13.333 3.80713 13.93 3.80713 14.6663C3.80713 15.4027 4.40408 15.9997 5.14046 15.9997Z" fill="#006D77"/>
<path d="M11.807 15.9997C12.5433 15.9997 13.1403 15.4027 13.1403 14.6663C13.1403 13.93 12.5433 13.333 11.807 13.333C11.0706 13.333 10.4736 13.93 10.4736 14.6663C10.4736 15.4027 11.0706 15.9997 11.807 15.9997Z" fill="#006D77"/>
</g>
<defs>
<clipPath id="clip0_459_7186">
<rect width="16" height="16" fill="white" transform="translate(0.473633)"/>
</clipPath>
</defs>
</svg>
