<svg width="205" height="53" viewBox="0 0 205 53" fill="none" xmlns="http://www.w3.org/2000/svg">
<g clip-path="url(#clip0_365_3368)">
<path d="M16.1843 37.2625L21.5791 42.6572L16.1843 48.1059L0.00012207 31.8678L5.39486 26.473L10.7896 31.8678L16.1843 26.473L21.5791 31.8678L16.1843 37.2625Z" fill="#C3C9CB"/>
<path d="M43.212 31.8678L26.9738 48.1059L21.5791 42.6572L26.9738 37.2625L21.5791 31.8678L26.9738 26.473L32.3686 31.8678L37.7633 26.473L43.212 31.8678Z" fill="#DDE1E2"/>
<path d="M43.212 21.0783L37.7633 26.473L32.3686 21.0783L26.9738 26.473L21.5791 21.0783L26.9738 15.6835L21.5791 10.2888L26.9738 4.89404L43.212 21.0783Z" fill="#C3C9CB"/>
<path d="M16.1843 15.6835L21.5791 21.0783L16.1843 26.473L10.7896 21.0783L5.39486 26.473L0.00012207 21.0783L16.1843 4.89404L21.5791 10.2888L16.1843 15.6835Z" fill="#DDE1E2"/>
</g>
<path d="M72.4346 13.7511V19.8209H71.7138C71.7138 19.6439 71.6759 19.4668 71.6 19.2898C71.5241 19.1128 71.423 19.0242 71.2965 19.0242H59.0052V25.739H68.9445C69.0709 25.739 69.1721 25.6505 69.248 25.4734C69.3238 25.2964 69.3618 25.1193 69.3618 24.9423H70.0826V31.0121H69.3618C69.3618 30.8351 69.3238 30.658 69.248 30.481C69.1721 30.304 69.0709 30.2155 68.9445 30.2155H59.0052V41.8619C59.0052 41.9884 59.0937 42.0895 59.2707 42.1654C59.473 42.2413 59.6754 42.2792 59.8777 42.2792V43H53.2009V42.2792C53.4032 42.2792 53.5929 42.2413 53.7699 42.1654C53.9723 42.0895 54.0734 41.9884 54.0734 41.8619V15.6858C54.0734 15.5594 53.9723 15.4582 53.7699 15.3824C53.5929 15.3065 53.4159 15.2685 53.2388 15.2685V14.5478H71.2965C71.423 14.5478 71.5241 14.4592 71.6 14.2822C71.6759 14.1052 71.7138 13.9281 71.7138 13.7511H72.4346ZM86.6047 24.4112V30.5189H85.8839C85.8839 30.3419 85.846 30.1396 85.7701 29.912C85.6942 29.6843 85.5931 29.5579 85.4666 29.5326H85.2011C84.4171 29.5326 83.6204 29.7602 82.8111 30.2155C82.0271 30.6454 81.3695 31.2271 80.8384 31.9605C80.3326 32.6687 80.0797 33.4274 80.0797 34.2367V41.8619C80.0797 41.9884 80.1682 42.0895 80.3452 42.1654C80.5475 42.2413 80.7372 42.2792 80.9143 42.2792V43H74.541V42.2792C74.718 42.2792 74.895 42.2413 75.0721 42.1654C75.2744 42.0895 75.3756 41.9884 75.3756 41.8619V26.6874C75.3756 26.5609 75.2744 26.4598 75.0721 26.3839C74.895 26.308 74.718 26.2701 74.541 26.2701V25.5493H80.0797V27.1806C80.7625 26.5483 81.5845 26.0425 82.5455 25.6631C83.5066 25.2837 84.4676 25.0941 85.4287 25.0941H85.4666H85.5046C85.631 25.0941 85.7195 25.0182 85.7701 24.8664C85.846 24.7147 85.8839 24.5629 85.8839 24.4112H86.6047ZM97.9672 43.4552C96.0957 43.4552 94.4392 43.0632 92.9976 42.2792C91.5813 41.4699 90.4685 40.3697 89.6592 38.9787C88.8752 37.5878 88.4832 36.0197 88.4832 34.2746C88.4832 32.5549 88.8752 30.9868 89.6592 29.5705C90.4685 28.1543 91.5939 27.0415 93.0355 26.2321C94.4771 25.3975 96.121 24.9802 97.9672 24.9802C99.7376 24.9802 101.344 25.3849 102.785 26.1942C104.227 26.9782 105.365 28.0784 106.199 29.4947C107.034 30.8857 107.451 32.479 107.451 34.2746C107.451 35.8427 107.072 37.3348 106.313 38.7511C105.58 40.1421 104.492 41.2802 103.051 42.1654C101.609 43.0253 99.9146 43.4552 97.9672 43.4552ZM97.9672 39.0926C99.4594 39.0926 100.661 38.6626 101.571 37.8027C102.507 36.9175 102.975 35.7795 102.975 34.3885C102.975 32.9469 102.507 31.7582 101.571 30.8224C100.661 29.8867 99.4594 29.4188 97.9672 29.4188C96.5762 29.4188 95.4129 29.8867 94.4771 30.8224C93.5413 31.7329 93.0735 32.8836 93.0735 34.2746C93.0735 35.7415 93.5413 36.9175 94.4771 37.8027C95.4129 38.6626 96.5762 39.0926 97.9672 39.0926ZM128.949 26.2701H128.684C128.355 26.2701 128.14 26.3333 128.039 26.4598L122.007 34.3505L127.887 42.0895C127.988 42.216 128.292 42.2792 128.798 42.2792V43H122.121V42.2792C122.424 42.2792 122.576 42.216 122.576 42.0895C122.576 42.0389 122.525 41.9378 122.424 41.786L119.314 37.6889L116.127 41.824L116.051 41.9757C116.051 42.0769 116.114 42.1654 116.241 42.2413C116.367 42.2919 116.544 42.3171 116.772 42.3171V43H109.716V42.2792H109.905C110.259 42.2792 110.5 42.216 110.626 42.0895L116.544 34.2746L110.588 26.4598C110.487 26.3333 110.184 26.2701 109.678 26.2701V25.5493H116.317V26.2321C116.013 26.2321 115.861 26.2954 115.861 26.4218C115.861 26.4977 115.899 26.5989 115.975 26.7253L119.2 30.9742L122.5 26.7253L122.576 26.5736C122.576 26.4724 122.5 26.3965 122.348 26.346C122.222 26.2701 122.045 26.2321 121.817 26.2321V25.5493H128.949V26.2701Z" fill="#C3C9CB"/>
<defs>
<clipPath id="clip0_365_3368">
<rect width="43.2118" height="43.2118" fill="white" transform="translate(0.00012207 4.89404)"/>
</clipPath>
</defs>
</svg>
