<svg width="205" height="53" viewBox="0 0 205 53" fill="none" xmlns="http://www.w3.org/2000/svg">
<g clip-path="url(#clip0_365_3355)">
<path d="M14.7277 8.96713C13.2711 15.3329 8.25401 20.2961 1.94217 21.7527C0.809272 22.0224 6.10352e-05 22.9934 6.10352e-05 24.1263V28.8737C6.10352e-05 30.3842 1.34875 31.5171 2.85927 31.2474C6.68954 30.5461 10.1961 29.0356 13.2711 26.9316C15.8606 25.1513 18.0724 22.8856 19.9066 20.2961C22.3882 16.7356 24.0066 12.5277 24.4922 7.99608C24.5461 7.4566 24.1685 7.02502 23.629 7.02502H17.1014C15.9685 7.02502 14.9974 7.83423 14.7277 8.96713Z" fill="#C3C9CB"/>
<path d="M19.9066 32.704C18.1264 30.1145 15.8606 27.9026 13.2711 26.0684C10.1961 23.9105 6.68954 22.4 2.85927 21.7526C1.34875 21.4829 6.10352e-05 22.6158 6.10352e-05 24.1263V28.8737C6.10352e-05 30.0066 0.809272 30.9776 1.94217 31.2474C8.30796 32.704 13.3251 37.7211 14.7277 44.0329C14.9974 45.1658 15.9685 45.975 17.1014 45.975H23.629C24.1145 45.975 24.5461 45.5434 24.4922 45.004C24.0066 40.4724 22.3882 36.2645 19.9066 32.704Z" fill="#DDE1E2"/>
<path d="M27.0277 45.004C26.9738 45.4895 27.3514 45.975 27.8909 45.975H34.4185C35.5514 45.975 36.5224 45.1658 36.7922 44.0329C38.2488 37.6671 43.2659 32.704 49.5777 31.2474C50.7106 30.9776 51.5198 30.0066 51.5198 28.8737V24.1263C51.5198 22.6158 50.1711 21.4829 48.6606 21.7526C44.8303 22.454 41.3238 23.9645 38.2488 26.0684C35.6593 27.8487 33.4474 30.1145 31.6132 32.704C29.1317 36.2645 27.5132 40.4724 27.0277 45.004Z" fill="#C3C9CB"/>
<path d="M34.4185 7.02502H27.8909C27.3514 7.02502 26.9738 7.4566 27.0277 7.99608C27.5132 12.5277 29.1317 16.7356 31.6132 20.2961C33.3935 22.8856 35.6593 25.0974 38.2488 26.9316C41.3238 29.0895 44.8303 30.6 48.6606 31.2474C50.1711 31.5171 51.5198 30.3842 51.5198 28.8737V24.1263C51.5198 22.9934 50.7106 22.0224 49.5777 21.7527C43.2119 20.2961 38.2488 15.279 36.7922 8.96713C36.5224 7.83423 35.5514 7.02502 34.4185 7.02502Z" fill="#DDE1E2"/>
</g>
<path d="M77.8972 33.8407C78.3778 33.8407 78.7318 34.0303 78.9595 34.4097C79.2124 34.7638 79.3388 35.1558 79.3388 35.5857C79.3388 36.1168 79.2503 36.4962 79.0733 36.7238C78.9215 36.9261 78.618 37.1411 78.1628 37.3687C77.1006 37.8746 75.7855 38.2792 74.2174 38.5827C72.6494 38.8862 70.9675 39.0379 69.1719 39.0379C66.921 39.0379 65.2645 38.6586 64.2022 37.8998C63.1653 37.1411 62.5204 36.2306 62.2675 35.1684C62.0399 34.0809 61.9261 32.6646 61.9261 30.9196C61.9261 29.048 62.0019 27.2144 62.1537 25.4188C62.3054 23.5979 62.571 21.2837 62.9503 18.4764C63.1274 17.2625 63.6079 16.3899 64.3919 15.8588C65.1759 15.3024 66.0358 15.0242 66.9716 15.0242C67.7556 15.0242 69.0328 14.999 70.8032 14.9484L74.1036 14.9104C75.4693 14.9104 76.4557 14.9484 77.0626 15.0242C77.8214 15.176 78.3778 15.353 78.7318 15.5553C79.1112 15.7324 79.3009 16.0485 79.3009 16.5038C79.3009 17.0096 79.1239 17.5027 78.7698 17.9833C78.441 18.4638 77.9352 18.7041 77.2523 18.7041C76.4683 18.7041 75.3429 18.6535 73.876 18.5523C72.4091 18.4512 71.309 18.4006 70.5755 18.4006C69.9433 18.4006 69.3236 18.4385 68.7167 18.5144C68.0085 18.565 67.5027 18.6535 67.1992 18.7799C66.8957 18.9064 66.7187 19.1214 66.6681 19.4249C66.314 22.0298 66.137 23.9519 66.137 25.1912C66.7187 25.267 67.2877 25.305 67.8441 25.305C68.5523 25.305 69.311 25.267 70.1203 25.1912C70.9296 25.1153 71.4481 25.0647 71.6757 25.0394C73.0161 24.913 74.1668 24.8497 75.1279 24.8497C75.6843 24.8497 76.1016 24.9509 76.3798 25.1532C76.6833 25.3556 76.835 25.6338 76.835 25.9878C76.835 26.5442 76.6833 26.9742 76.3798 27.2777C76.1016 27.5812 75.5958 27.8088 74.8623 27.9605C73.9772 28.1376 72.877 28.2767 71.5619 28.3778C70.272 28.479 69.0075 28.5296 67.7682 28.5296C67.3383 28.5296 66.744 28.5043 65.9852 28.4537C65.9094 29.9964 65.8714 31.4254 65.8714 32.7405C65.8714 34.5362 67.0601 35.434 69.4374 35.434C70.702 35.434 71.7516 35.3455 72.5862 35.1684C73.4208 34.9914 74.3818 34.7385 75.4693 34.4097C76.481 34.0303 77.2903 33.8407 77.8972 33.8407ZM90.9242 29.2504C91.0001 29.048 91.2657 28.3146 91.7209 27.0501C92.2014 25.7855 92.644 24.8245 93.0487 24.1669C93.7062 23.13 94.2879 22.6115 94.7937 22.6115C95.5019 22.6115 96.0456 22.7506 96.425 23.0288C96.8044 23.2817 96.994 23.6484 96.994 24.129C96.994 24.3566 96.8929 24.6727 96.6905 25.0774C96.5135 25.482 96.4123 25.7223 96.3871 25.7982C95.3754 28.0238 94.465 30.4137 93.6556 32.9681L92.859 35.9272C92.5555 36.8882 92.037 37.6722 91.3036 38.2792C90.5702 38.8609 89.7103 39.1517 88.7239 39.1517C87.8387 39.1517 87.0168 38.7471 86.2581 37.9378C85.8028 37.2296 85.3223 36.3318 84.8165 35.2443C84.336 34.1568 83.9187 33.0946 83.5646 32.0577L82.2368 28.0743C81.9586 27.2903 81.731 26.6201 81.554 26.0637C81.4022 25.5073 81.3263 25.0015 81.3263 24.5463C81.301 24.0152 81.4528 23.5852 81.7816 23.2564C82.1104 22.9276 82.5656 22.7633 83.1473 22.7633C83.8048 22.7633 84.2727 22.9024 84.5509 23.1806C84.8291 23.4335 85.082 23.8381 85.3097 24.3945C85.4108 24.9762 85.689 26.1649 86.1442 27.9605L86.4098 29.0227C86.6374 29.8826 86.9283 30.7552 87.2823 31.6404C87.6364 32.5255 87.9905 33.3728 88.3446 34.1821C88.294 34.0556 88.471 34.4729 88.8757 35.434C89.1286 34.7005 89.4194 33.8027 89.7482 32.7405L90.9242 29.2504ZM116.735 37.1791C116.735 37.7355 116.432 38.2033 115.825 38.5827C115.243 38.9621 114.7 39.1517 114.194 39.1517C113.233 39.1517 112.461 39.0379 111.88 38.8103C111.323 38.5574 110.805 38.1022 110.324 37.4446C109.667 38.0263 108.769 38.4689 107.631 38.7724C106.493 39.0506 105.443 39.1897 104.482 39.1897C102.914 39.1897 101.624 38.7724 100.613 37.9378C99.6009 37.0779 99.0951 35.826 99.0951 34.1821C99.0951 33.4739 99.2847 32.829 99.6641 32.2473C100.043 31.6404 100.562 31.1092 101.219 30.654C101.953 30.1735 102.788 29.8068 103.723 29.5539C104.659 29.2757 105.633 29.1366 106.644 29.1366C107.175 29.1366 107.808 29.2377 108.541 29.44C109.275 29.6424 109.844 29.8573 110.248 30.085V29.478C110.248 28.1123 109.92 27.1765 109.262 26.6707C108.604 26.1396 107.542 25.874 106.075 25.874C105.645 25.874 105.215 25.9625 104.786 26.1396C104.381 26.3166 103.913 26.5569 103.382 26.8604C102.674 27.2397 102.004 27.4294 101.371 27.4294C101.144 27.4294 100.929 27.2777 100.726 26.9742C100.524 26.6454 100.423 26.3546 100.423 26.1016C100.423 25.3682 100.764 24.7359 101.447 24.2048C102.155 23.6737 102.99 23.2817 103.951 23.0288C104.912 22.7506 105.772 22.6115 106.531 22.6115C107.289 22.6115 108.162 22.7633 109.148 23.0667C110.135 23.3449 110.944 23.737 111.576 24.2428C112.335 24.9003 112.917 25.6717 113.321 26.5569C113.751 27.4168 113.966 28.3652 113.966 29.4021C113.966 29.7309 113.941 30.2241 113.89 30.8816C113.84 31.5898 113.814 32.1968 113.814 32.7026C113.814 32.9302 113.789 33.2716 113.738 33.7269C113.688 34.2832 113.663 34.7258 113.663 35.0546C113.663 35.3581 113.776 35.6237 114.004 35.8513C114.232 36.0536 114.497 36.1548 114.801 36.1548L115.863 36.1168C116.141 36.1168 116.356 36.218 116.508 36.4203C116.66 36.6227 116.735 36.8756 116.735 37.1791ZM104.52 36.1927C105.607 36.1927 106.518 36.0789 107.251 35.8513C107.985 35.6237 108.87 35.2064 109.907 34.5994C110.008 34.1694 110.071 33.6004 110.097 32.8923C108.706 32.2347 107.555 31.9059 106.644 31.9059C105.607 31.9059 104.684 32.0956 103.875 32.475C103.066 32.8543 102.661 33.5245 102.661 34.4856C102.661 34.9661 102.863 35.3708 103.268 35.6995C103.673 36.0283 104.09 36.1927 104.52 36.1927ZM119.386 25.6843C118.728 25.2291 118.399 24.7486 118.399 24.2428C118.399 23.8887 118.551 23.5599 118.855 23.2564C119.158 22.9529 119.613 22.8012 120.22 22.8012C120.928 22.8012 121.561 22.9909 122.117 23.3702C122.699 23.7243 123.103 24.2428 123.331 24.9256C123.913 24.2428 124.57 23.699 125.304 23.2944C126.062 22.8897 126.834 22.6874 127.618 22.6874C128.554 22.6874 129.401 22.9403 130.16 23.4461C130.918 23.9519 131.298 24.6348 131.298 25.4947C131.298 25.9752 131.083 26.4684 130.653 26.9742C130.248 27.48 129.831 27.7329 129.401 27.7329C129.173 27.7329 128.971 27.6823 128.794 27.5812C128.642 27.4547 128.452 27.2777 128.225 27.0501C127.972 26.7971 127.757 26.6201 127.58 26.5189C127.403 26.3925 127.201 26.3293 126.973 26.3293C126.568 26.3293 126.189 26.3925 125.835 26.5189C125.481 26.6454 125.24 26.7971 125.114 26.9742C124.709 27.6065 124.406 28.1755 124.204 28.6813C124.027 29.1871 123.938 29.7309 123.938 30.3126C123.938 30.7425 123.925 31.084 123.9 31.3369L123.862 33.4992C123.862 33.828 123.875 34.1947 123.9 34.5994C123.925 35.004 123.951 35.3075 123.976 35.5099C124.052 36.1927 124.09 36.8503 124.09 37.4825C124.09 37.9125 123.925 38.2919 123.597 38.6206C123.268 38.9494 122.863 39.1138 122.383 39.1138C121.624 39.1138 121.068 38.9747 120.713 38.6965C120.359 38.393 120.182 37.8493 120.182 37.0652L120.144 34.6373C120.119 34.1568 120.106 33.4739 120.106 32.5888L120.144 30.085C120.195 28.871 120.22 27.8847 120.22 27.1259C120.22 26.8477 120.157 26.5948 120.031 26.3672C119.929 26.1396 119.714 25.912 119.386 25.6843ZM147.926 39.1517C147.066 39.1517 146.409 39.0253 145.954 38.7724C145.498 38.4942 145.005 37.9884 144.474 37.2549C143.816 37.8366 142.83 38.3045 141.515 38.6586C140.225 39.0126 139.112 39.1897 138.177 39.1897C136.634 39.1897 135.382 38.7724 134.421 37.9378C133.485 37.0779 133.017 35.826 133.017 34.1821C133.017 33.4739 133.207 32.829 133.586 32.2473C133.991 31.6404 134.509 31.1092 135.142 30.654C135.85 30.1735 136.684 29.7941 137.645 29.5159C138.632 29.2377 139.53 29.0986 140.339 29.0986C141.705 29.0986 142.919 29.2251 143.981 29.478V29.44C143.981 28.0743 143.639 27.1386 142.957 26.6328C142.299 26.1016 141.237 25.8361 139.77 25.8361C138.834 25.8361 138.025 26.2534 137.342 27.088C137.089 27.4168 136.558 27.5812 135.749 27.5812C135.344 27.5812 135.041 27.4168 134.838 27.088C134.661 26.7339 134.573 26.3798 134.573 26.0258C134.573 25.2923 134.876 24.6601 135.483 24.129C136.115 23.5979 136.874 23.2058 137.759 22.9529C138.644 22.6747 139.466 22.5356 140.225 22.5356C140.959 22.5356 141.831 22.6874 142.843 22.9909C143.854 23.2944 144.676 23.699 145.309 24.2048C146.067 24.8624 146.649 25.6338 147.054 26.5189C147.484 27.3788 147.699 28.3272 147.699 29.3642C147.699 29.693 147.673 30.1861 147.623 30.8437C147.572 31.6024 147.547 32.222 147.547 32.7026C147.547 32.9302 147.522 33.221 147.471 33.5751C147.42 34.0303 147.395 34.4097 147.395 34.7132C147.395 35.042 147.496 35.3581 147.699 35.6616C147.901 35.9651 148.179 36.218 148.533 36.4203C148.862 36.5974 149.077 36.787 149.178 36.9894C149.279 37.1917 149.33 37.4193 149.33 37.6722C149.33 37.9251 149.165 38.2413 148.837 38.6206C148.533 38.9747 148.23 39.1517 147.926 39.1517ZM140.339 31.9059C139.353 31.9059 138.48 32.0956 137.721 32.475C136.963 32.8543 136.583 33.5245 136.583 34.4856C136.583 34.9661 136.748 35.3708 137.076 35.6995C137.431 36.0283 137.81 36.1927 138.215 36.1927C139.302 36.1927 140.213 36.0789 140.946 35.8513C141.679 35.6237 142.565 35.2064 143.601 34.5994C143.728 34.1947 143.804 33.6257 143.829 32.8923C143.829 32.6141 143.842 32.3991 143.867 32.2473C142.501 32.0197 141.325 31.9059 140.339 31.9059Z" fill="#C3C9CB"/>
<defs>
<clipPath id="clip0_365_3355">
<rect width="51.5197" height="38.95" fill="white" transform="translate(6.10352e-05 7.02502)"/>
</clipPath>
</defs>
</svg>
