<svg width="205" height="53" viewBox="0 0 205 53" fill="none" xmlns="http://www.w3.org/2000/svg">
<g clip-path="url(#clip0_365_3329)">
<path d="M17.8566 36.2105L17.3711 35.0237C16.7237 33.3513 15.429 32.0566 13.7566 31.4092L12.5698 30.9237L12.0842 30.7079L9.33293 29.629L8.7395 29.4132L5.88029 28.2803L3.56056 27.3632C3.18293 27.2013 2.96714 26.9316 2.96714 26.5C2.96714 26.1224 3.18293 25.7987 3.56056 25.6369L5.88029 24.7198L8.7395 23.5869L9.33293 23.3711L8.20003 20.7276L8.14608 20.6198L5.39477 21.6987L2.15793 22.9934C1.34871 23.3171 0.809241 23.7487 0.485557 24.3421C0.161873 24.8816 3.05176e-05 25.6369 3.05176e-05 26.5C3.05176e-05 27.3632 0.161873 28.1184 0.485557 28.7119C0.809241 29.3053 1.34871 29.7369 2.15793 30.0066L5.39477 31.3013L8.14608 32.3803L8.25398 32.4342L10.8974 33.4592L11.8145 31.3553L10.8974 33.4592L11.4908 33.675C13.1632 34.3224 14.4579 35.6171 15.1053 37.2895L15.3211 37.8829L18.0724 36.6961L17.8566 36.2105Z" fill="#DDE1E2"/>
<path d="M39.004 38.2605L37.6013 35.0777L36.4145 32.3803L36.3606 32.2724L35.2277 29.629L34.0408 30.1145L35.2277 29.629L34.9579 29.0895C34.2566 27.4711 34.2566 25.5829 34.9579 23.9645L35.2277 23.425L32.4224 22.3461L32.2066 22.8316L31.7211 24.0184C31.0198 25.6369 31.0198 27.525 31.7211 29.1434L32.2066 30.3303L32.4224 30.8158L33.6092 33.5671L34.85 33.0816L33.6092 33.5671L33.879 34.1605L35.1198 36.9658L36.1448 39.2855C36.3066 39.6632 36.2527 39.9869 35.929 40.2566C35.6592 40.5263 35.3356 40.5803 34.9579 40.4724L32.6382 39.4474L29.8329 38.2066L29.2395 37.9369L28.2145 40.5803L28.1606 40.6882L30.8579 41.875L34.0408 43.2777C34.7961 43.6013 35.5513 43.7092 36.1448 43.5474C36.7921 43.3855 37.3856 42.954 38.0329 42.3605C38.6803 41.7132 39.0579 41.1198 39.2198 40.4724C39.4356 39.7171 39.3277 39.0158 39.004 38.2605Z" fill="#C3C9CB"/>
<path d="M27.0816 9.61446L25.7869 6.37762C25.4632 5.56841 25.0316 5.02894 24.4921 4.70525C23.8987 4.38157 23.1974 4.21973 22.2803 4.21973C21.4171 4.21973 20.6619 4.38157 20.0685 4.70525C19.475 5.02894 19.0435 5.56841 18.7737 6.37762L17.479 9.61446L16.4 12.3658L16.5079 12.4197L18.2342 13.175L16.5079 12.4197L16.4 12.3658L16.3461 12.4737L15.3211 15.1171L15.1053 15.7105C14.4579 17.3829 13.1632 18.6776 11.4908 19.325L10.8974 19.5408L12.0842 22.2921L12.5698 22.0763L13.7566 21.5908C15.429 20.9434 16.7237 19.6487 17.3711 17.9763L17.8566 16.7895L18.0724 16.3039L17.3171 15.9803L18.0724 16.3039L19.1513 13.4987L19.3671 12.9053L20.5 10.046L21.4171 7.72631C21.579 7.34867 21.8487 7.13288 22.2803 7.13288H22.3342C22.7119 7.13288 23.0356 7.34867 23.1974 7.72631L24.1145 10.046L25.2474 12.9053L25.4632 13.4987L28.1066 12.3658L28.2145 12.3118L27.0816 9.61446Z" fill="#DDE1E2"/>
<path d="M39.2198 12.6356C39.0579 11.9883 38.6263 11.3948 38.0329 10.7475C37.3856 10.1001 36.7921 9.72247 36.1448 9.56063C35.4974 9.39879 34.7961 9.45274 34.0408 9.83037L30.8579 11.233L28.1606 12.4198H28.0527L25.4092 13.5527L24.8158 13.7685C23.1974 14.4698 21.3092 14.4698 19.6908 13.7685L19.0974 13.4988L18.0185 16.3041L18.504 16.5198L19.6908 17.0054C21.3092 17.7067 23.1974 17.7067 24.8158 17.0054L26.0027 16.5198L26.4882 16.3041L26.2724 15.8185L26.4882 16.3041L29.2395 15.1172L28.2145 12.4738V12.4198V12.4738L29.2395 15.1172L29.8329 14.8475L32.6382 13.6067L34.9579 12.5817C35.3356 12.4198 35.6592 12.4738 35.929 12.7975C36.1987 13.0672 36.2527 13.3909 36.1448 13.7685L35.1198 16.0883L33.879 18.8935L33.6092 19.4869L36.2527 20.5119L36.3606 20.5659L37.5474 17.8685L38.95 14.6856C39.3277 13.9843 39.4356 13.283 39.2198 12.6356Z" fill="#C3C9CB"/>
<path d="M44.075 24.2881C43.7513 23.6947 43.2119 23.2631 42.4027 22.9394L39.1658 21.6447L36.4145 20.5657L36.3606 20.6197L36.4145 20.5657L36.3066 20.5118L33.6632 19.4868L33.0698 19.325C31.3974 18.6776 30.1027 17.3829 29.4553 15.7105L29.2395 15.1171L26.4882 16.3039L26.704 16.7894L27.1895 17.9763C27.8369 19.6486 29.1316 20.9434 30.804 21.5907L31.9908 22.0763L32.4763 22.2921L35.2277 23.371L35.929 21.8065L35.2277 23.371L35.8211 23.5868L38.6803 24.7197L41 25.6368C41.3777 25.7986 41.5935 26.0684 41.5935 26.5C41.5935 26.8776 41.3777 27.1473 41 27.3631L38.6803 28.2802L35.8211 29.4131L35.2277 29.6289L36.3606 32.2723L36.4145 32.3802L39.1658 31.3013L42.4027 30.0065C43.2119 29.6829 43.7513 29.2513 44.075 28.7118C44.3987 28.1184 44.5606 27.4171 44.5606 26.5C44.5606 25.6368 44.3987 24.8815 44.075 24.2881Z" fill="#DDE1E2"/>
<path d="M26.0027 36.4802L24.8158 35.9408C23.1974 35.2395 21.3092 35.2395 19.6908 35.9408L18.504 36.4802L18.0185 36.696L15.2671 37.8829L14.6737 38.1526L11.8685 39.3934L9.65661 40.3645C9.27898 40.5263 8.95529 40.4724 8.68556 40.1487C8.41582 39.8789 8.36187 39.5553 8.46977 39.1776L9.49477 36.8579L10.7356 34.0526L11.0053 33.4592L8.36187 32.4342L8.25398 32.3802L7.06714 35.0776L5.6645 38.2605C5.34082 39.0158 5.23292 39.771 5.39477 40.3645C5.55661 41.0118 5.98819 41.6052 6.58161 42.2526C7.22898 42.9 7.8224 43.2776 8.46977 43.4395C9.11714 43.6013 9.81845 43.5474 10.5737 43.1697L13.7566 41.7671L16.454 40.5802L16.5619 40.5263L19.2053 39.3934L18.5579 37.721L19.2053 39.3934L19.7448 39.1237C21.3632 38.4224 23.2513 38.4224 24.8698 39.1237L25.4632 39.3934L26.5421 36.6421L26.0027 36.4802Z" fill="#C3C9CB"/>
<path d="M13.7027 11.179L10.5198 9.77634C9.76451 9.45266 9.00924 9.34476 8.41582 9.50661C7.76845 9.66845 7.17503 10.1 6.52766 10.6934C5.8803 11.3408 5.50266 11.9342 5.34082 12.5816C5.17898 13.229 5.23293 13.9303 5.61056 14.6856L7.01319 17.8684L8.20003 20.5658L8.25398 20.6737L9.38687 23.3171L10.7356 22.7777L9.38687 23.3171L9.65661 23.9106C10.3579 25.529 10.3579 27.4171 9.65661 29.0356L9.38687 29.575L12.1382 30.654L12.354 30.1684L12.8395 28.9816C13.5408 27.3632 13.5408 25.475 12.8395 23.8566L12.3 22.6698L12.0842 22.1842L10.8974 19.4329L10.6277 18.8395L9.38687 16.0342L8.36187 13.7145C8.20003 13.3369 8.25398 13.0132 8.57766 12.7434C8.8474 12.4737 9.17109 12.4198 9.54872 12.5277L11.8685 13.5527L14.6737 14.7934L15.2671 15.0632L16.2921 12.4198L16.3461 12.3119L13.7027 11.179Z" fill="#C3C9CB"/>
<path d="M32.4763 30.7079L31.9908 30.9237L30.804 31.4092C29.1316 32.0566 27.8369 33.3513 27.1895 35.0237L26.704 36.2105L26.4882 36.696L25.4092 39.4474L25.1935 40.0408L24.0606 42.9L23.1435 45.2197C22.9816 45.5974 22.7119 45.8131 22.2803 45.8131C21.9027 45.8131 21.579 45.5974 21.4171 45.2197L20.5 42.9L19.3671 40.0408L19.1513 39.4474L16.5079 40.5803L16.4 40.6342L17.479 43.3855L18.7737 46.6224C19.0974 47.4316 19.529 47.971 20.0685 48.2947C20.6619 48.6184 21.3632 48.7803 22.2803 48.7803C23.1435 48.7803 23.8987 48.6184 24.4921 48.2947C25.0856 47.971 25.5171 47.4316 25.7869 46.6224L27.0816 43.3855L28.1606 40.6342H28.1066H28.1606L28.2145 40.5263L29.2395 37.8829L27.7829 37.2355L29.2395 37.8829L29.4553 37.2895C30.1027 35.6171 31.3974 34.3224 33.0698 33.675L33.6632 33.4592L32.4763 30.7079Z" fill="#DDE1E2"/>
</g>
<path d="M55.3082 40V13.9757H70.331V17.0106H58.6466V25.4325H68.9653V28.4674H58.6466V40H55.3082ZM74.4035 40V20.0455H77.5143V40H74.4035ZM74.3276 16.176V12.572H77.5522V16.176H74.3276ZM85.6673 46.9044C84.0487 46.9044 82.8221 46.4365 81.9875 45.5008C81.1529 44.5903 80.7356 43.4775 80.7356 42.1624C80.7356 41.2013 80.9632 40.3288 81.4185 39.5448C81.899 38.7607 82.5313 38.217 83.3153 37.9135C82.8095 37.5847 82.4048 37.1548 82.1013 36.6237C81.8231 36.0673 81.684 35.4982 81.684 34.9165C81.684 34.1072 81.9369 33.4117 82.4428 32.83C82.9739 32.2231 83.6567 31.7678 84.4913 31.4643C83.7832 30.8826 83.2141 30.1618 82.7842 29.302C82.3795 28.4168 82.1772 27.4178 82.1772 26.305C82.1772 24.2058 82.7589 22.5619 83.9223 21.3733C85.0857 20.1846 86.679 19.5903 88.7022 19.5903C89.7392 19.5903 90.7002 19.8305 91.5854 20.311C92.4706 19.8305 93.0776 19.2868 93.4064 18.6798C93.7351 18.0728 93.9501 17.4532 94.0513 16.8209H96.7827C96.7827 18.0096 96.4792 19.0339 95.8722 19.8937C95.2905 20.7536 94.4812 21.3227 93.4443 21.6009C94.0007 22.1573 94.4306 22.8401 94.7341 23.6494C95.0629 24.4335 95.2273 25.3186 95.2273 26.305C95.2273 28.3788 94.6456 30.0101 93.4822 31.1988C92.3441 32.3874 90.8014 32.9944 88.854 33.0197H86.7675C86.2617 33.0197 85.8317 33.1968 85.4777 33.5508C85.1236 33.8796 84.9466 34.2969 84.9466 34.8027C84.9466 35.2832 85.1236 35.7005 85.4777 36.0546C85.857 36.4087 86.287 36.5857 86.7675 36.5857H92.4579C93.8995 36.5857 95.0376 37.0536 95.8722 37.9894C96.7321 38.8998 97.1621 39.9874 97.1621 41.2519C97.1621 42.2888 96.9344 43.2372 96.4792 44.0971C96.0493 44.957 95.3917 45.6399 94.5065 46.1457C93.6466 46.6515 92.5844 46.9044 91.3199 46.9044H85.6673ZM86.1605 44.2109H91.6613C92.3188 44.2109 92.8752 43.9707 93.3305 43.4901C93.7857 43.0349 94.0133 42.4912 94.0133 41.8589C94.0133 41.2013 93.8237 40.6449 93.4443 40.1897C93.0649 39.7597 92.4706 39.5448 91.6613 39.5448H86.1605C85.3765 39.5448 84.7948 39.7597 84.4154 40.1897C84.0361 40.6449 83.8464 41.2013 83.8464 41.8589C83.8464 42.4912 84.0361 43.0349 84.4154 43.4901C84.7948 43.9707 85.3765 44.2109 86.1605 44.2109ZM88.6643 30.44C89.7771 30.44 90.6244 30.0733 91.206 29.3399C91.7877 28.5812 92.0786 27.5695 92.0786 26.305C92.0786 24.9646 91.7877 23.9403 91.206 23.2321C90.6244 22.524 89.7771 22.1699 88.6643 22.1699C87.5768 22.1699 86.7422 22.5493 86.1605 23.308C85.5788 24.0415 85.288 25.0404 85.288 26.305C85.288 27.6201 85.5788 28.6444 86.1605 29.3778C86.7422 30.086 87.5768 30.44 88.6643 30.44ZM102.527 40L97.5577 20.0455H100.972L103.476 31.2746C103.602 31.8058 103.729 32.4507 103.855 33.2094C103.982 33.9428 104.083 34.6004 104.159 35.1821C104.235 35.7385 104.272 36.0167 104.272 36.0167H104.424C104.424 36.0167 104.449 35.7638 104.5 35.258C104.551 34.7521 104.627 34.1325 104.728 33.3991C104.829 32.6656 104.93 31.9575 105.031 31.2746L107.042 20.0455H110.646L112.694 31.2746C112.77 31.7805 112.846 32.3116 112.922 32.868C112.998 33.3991 113.061 33.9049 113.112 34.3854C113.187 34.866 113.238 35.258 113.263 35.5614C113.289 35.8649 113.301 36.0167 113.301 36.0167H113.453C113.453 36.0167 113.466 35.8776 113.491 35.5994C113.542 35.3212 113.592 34.9545 113.643 34.4992C113.719 34.044 113.807 33.5382 113.908 32.9818C114.009 32.4001 114.123 31.831 114.25 31.2746L116.753 20.0455H119.902L114.933 40H111.48L109.394 28.6191C109.267 27.9362 109.154 27.2407 109.052 26.5326C108.977 25.8245 108.913 25.2301 108.863 24.7496C108.812 24.2691 108.787 24.0288 108.787 24.0288H108.635C108.635 24.0288 108.61 24.2691 108.559 24.7496C108.509 25.2301 108.433 25.8245 108.332 26.5326C108.256 27.2155 108.155 27.911 108.028 28.6191L105.98 40H102.527ZM122.716 40V20.0455H125.827V40H122.716ZM122.64 16.176V12.572H125.865V16.176H122.64ZM130.831 40V20.0455H133.183L133.6 22.6631H133.828C134.081 21.9044 134.473 21.2089 135.004 20.5766C135.535 19.919 136.269 19.5903 137.204 19.5903C137.634 19.5903 137.988 19.6408 138.267 19.742C138.545 19.8432 138.684 19.8937 138.684 19.8937V23.1183H137.66C137.002 23.1183 136.382 23.2701 135.801 23.5736C135.244 23.8518 134.789 24.3323 134.435 25.0152C134.106 25.698 133.942 26.6338 133.942 27.8224V40H130.831ZM148.047 40.4552C145.569 40.4552 143.684 39.6459 142.395 38.0273C141.13 36.3834 140.498 33.7152 140.498 30.0227C140.498 26.4314 141.117 23.8012 142.357 22.132C143.621 20.4375 145.505 19.5903 148.009 19.5903C150.184 19.5903 151.815 20.3237 152.903 21.7906C154.016 23.2321 154.572 25.6221 154.572 28.9605V30.9332H143.76C143.786 33.26 144.152 34.9671 144.86 36.0546C145.569 37.1421 146.656 37.6859 148.123 37.6859C149.109 37.6859 149.919 37.2939 150.551 36.5099C151.183 35.7005 151.499 34.6004 151.499 33.2094H154.572C154.572 35.435 153.965 37.2054 152.751 38.5205C151.563 39.8103 149.995 40.4552 148.047 40.4552ZM143.798 28.1639H151.31C151.31 26.267 151.031 24.8255 150.475 23.8391C149.919 22.8528 149.097 22.3596 148.009 22.3596C146.618 22.3596 145.594 22.8528 144.936 23.8391C144.304 24.8002 143.925 26.2418 143.798 28.1639Z" fill="#C3C9CB"/>
<defs>
<clipPath id="clip0_365_3329">
<rect width="44.5605" height="44.5605" fill="white" transform="translate(3.05176e-05 4.21973)"/>
</clipPath>
</defs>
</svg>
