<svg width="205" height="47" viewBox="0 0 205 47" fill="none" xmlns="http://www.w3.org/2000/svg">
<g clip-path="url(#clip0_365_3303)">
<path d="M38.6263 4.05193C39.1118 3.5664 38.7881 2.70325 38.0868 2.70325H33.3934C31.8829 2.70325 30.4263 3.29667 29.4013 4.37562L20.8237 12.8993L25.3013 17.3769L38.6263 4.05193Z" fill="#C3C9CB"/>
<path d="M16.2921 17.4309L19.0434 20.1822C20.0145 21.1532 21.525 21.1532 22.4961 20.1822L24.7619 17.9164L25.2474 17.4309L20.7698 12.9532L17.9645 10.148C16.9395 9.12296 15.4829 8.52954 14.0263 8.52954H7.39081L16.2921 17.4309Z" fill="#DDE1E2"/>
<path d="M2.9671 42.9479C2.48158 43.4334 2.80526 44.2966 3.50658 44.2966H8.25395C9.71053 44.2966 11.1671 43.7032 12.1921 42.6782L20.7697 34.1006L16.2921 29.6229L2.9671 42.9479Z" fill="#C3C9CB"/>
<path d="M22.4961 26.8176C21.525 25.8466 20.0145 25.8466 19.0434 26.8176L16.7776 29.0834L16.2921 29.569L20.7697 34.0466L23.575 36.8519C24.654 37.9308 26.1105 38.5242 27.6211 38.5242H34.2026L25.3013 29.6229L22.4961 26.8176Z" fill="#DDE1E2"/>
<path d="M10.1961 23.5269L7.39079 26.3321L14.6737 19.0492L1.34868 5.67029C0.863158 5.18476 0 5.50845 0 6.20976V10.9032C0 12.4137 0.593421 13.8163 1.67237 14.8953L10.1961 23.5269Z" fill="#C3C9CB"/>
<path d="M5.7724 30.2704V36.9059L14.7277 27.9506L17.479 25.1454C18.45 24.1743 18.45 22.6638 17.479 21.6927L14.7277 18.9414L7.39082 26.3322C6.36582 27.3572 5.7724 28.8138 5.7724 30.2704Z" fill="#DDE1E2"/>
<path d="M26.9737 27.9505L40.2987 41.3295C40.7842 41.815 41.5934 41.4913 41.5934 40.79V36.0426C41.5934 34.5321 41 33.1295 39.975 32.1045L31.4513 23.5269L26.9737 27.9505Z" fill="#C3C9CB"/>
<path d="M35.875 16.7835V10.094L26.9737 18.9953L24.2763 21.7466C23.3592 22.7177 23.3592 24.2282 24.2763 25.1993L27.0276 27.9506L34.3105 20.6677C35.2816 19.6427 35.875 18.24 35.875 16.7835Z" fill="#DDE1E2"/>
</g>
<path d="M50.0258 35L60.982 10.6719H69.3862L80.3424 35H74.422L72.1083 29.8622H58.2599L55.9462 35H50.0258ZM60.2334 25.4389H70.1348L65.4053 14.925H64.9629L60.2334 25.4389ZM85.6583 42.6557V38.7428H95.934C97.295 38.7428 97.9755 38.0509 97.9755 36.6672V35H90.4899C87.4503 35 85.0799 34.2514 83.3786 32.7543C81.6774 31.2572 80.8267 29.0909 80.8267 26.2555C80.8267 23.3974 81.6774 21.2197 83.3786 19.7226C85.0799 18.2255 87.4503 17.4769 90.4899 17.4769H102.909V37.2797C102.909 38.8902 102.444 40.1832 101.514 41.1586C100.584 42.1567 99.1324 42.6557 97.1589 42.6557H85.6583ZM90.4899 31.0871H97.9755V21.3899H90.4899C89.0155 21.3899 87.8813 21.7982 87.0874 22.6148C86.3162 23.4087 85.9305 24.6223 85.9305 26.2555C85.9305 27.866 86.3162 29.0796 87.0874 29.8962C87.8813 30.6901 89.0155 31.0871 90.4899 31.0871ZM115.622 35.1701C112.583 35.1701 110.212 34.4216 108.511 32.9245C106.81 31.4047 105.959 29.1817 105.959 26.2555C105.959 23.3066 106.81 21.0836 108.511 19.5865C110.212 18.0667 112.583 17.3068 115.622 17.3068H121.917C124.956 17.3068 127.327 18.0667 129.028 19.5865C130.729 21.0836 131.58 23.3066 131.58 26.2555C131.58 29.1817 130.729 31.4047 129.028 32.9245C127.327 34.4216 124.956 35.1701 121.917 35.1701H115.622ZM115.622 31.2572H121.917C123.391 31.2572 124.514 30.8489 125.285 30.0323C126.079 29.2157 126.476 27.9567 126.476 26.2555C126.476 24.5315 126.079 23.2612 125.285 22.4446C124.514 21.628 123.391 21.2197 121.917 21.2197H115.622C114.148 21.2197 113.014 21.628 112.22 22.4446C111.448 23.2612 111.063 24.5315 111.063 26.2555C111.063 27.9567 111.448 29.2157 112.22 30.0323C113.014 30.8489 114.148 31.2572 115.622 31.2572ZM134.629 35V17.4769H149.907C151.903 17.4769 153.355 17.976 154.262 18.9741C155.192 19.9494 155.657 21.2424 155.657 22.8529V35H150.723V23.4314C150.723 22.0704 150.043 21.3899 148.682 21.3899H139.563V35H134.629Z" fill="#C3C9CB"/>
<defs>
<clipPath id="clip0_365_3303">
<rect width="41.5934" height="41.5934" fill="white" transform="translate(0 2.70325)"/>
</clipPath>
</defs>
</svg>
