<svg width="205" height="53" viewBox="0 0 205 53" fill="none" xmlns="http://www.w3.org/2000/svg">
<g clip-path="url(#clip0_365_3316)">
<path d="M29.4013 11.3679L28.754 9.64157C28.754 9.64157 28.4842 8.83236 28.3224 8.61657C28.2684 8.50867 28.1066 8.34683 27.9987 8.18499C27.3513 7.53762 26.3803 7.21394 25.5711 7.48367C25.0316 7.64552 24.5461 7.86131 24.5461 7.86131L22.8197 8.61657C22.2803 8.88631 21.6868 9.04815 21.0934 9.15604C19.8526 9.42578 18.6118 9.42578 17.425 9.15604C16.8316 9.04815 16.2382 8.83236 15.6987 8.61657L14.0803 7.91525C14.0803 7.91525 13.1632 7.48367 12.8395 7.37578C12.0303 7.15999 11.1671 7.48367 10.5197 8.13104C10.4118 8.23894 10.25 8.45473 10.1961 8.61657C10.0342 8.88631 9.81843 9.64157 9.81843 9.64157L9.17106 11.3679C8.95527 11.9613 8.68553 12.4468 8.36185 12.9863C8.84737 12.8784 9.38685 12.9324 9.92632 13.2021L12.4618 14.335L14.6197 15.2521L14.7276 15.306L17.2632 16.385C18.5579 16.9245 20.0145 16.9245 21.3092 16.385L23.8987 15.2521L24.0066 15.1981L26.1645 14.281L28.7 13.1481C29.2934 12.8784 29.779 12.8245 30.2645 12.9324C29.8868 12.4468 29.6171 11.9074 29.4013 11.3679Z" fill="#C3C9CB"/>
<path d="M34.4184 36.6152L36.1447 35.9678L37.1697 35.5362C37.3316 35.4283 37.4395 35.3204 37.5474 35.2125C38.1947 34.5652 38.4645 33.6481 38.2487 32.7849L37.8171 31.8138L37.0618 30.0875C36.7921 29.5481 36.6302 28.9546 36.5224 28.3612C36.2526 27.1204 36.2526 25.8796 36.5224 24.6928C36.6302 24.0994 36.846 23.5059 37.0618 22.9665L37.7631 21.3481L38.3026 20.1073C38.4105 19.2981 38.1947 18.4349 37.5474 17.7875C37.4395 17.6796 37.3316 17.5717 37.2237 17.5178L36.0368 17.0323L34.4184 16.3849C33.825 16.1691 33.3395 15.8994 32.8 15.5757C32.9079 16.0612 32.8539 16.6007 32.5842 17.1402L31.4513 19.6757L30.5342 21.8336L30.4802 21.9415L29.3474 24.5309C28.8079 25.8257 28.8079 27.2823 29.3474 28.577L30.4802 31.1665L30.5342 31.2744L31.4513 33.4323L32.5842 35.9678C32.8539 36.5612 32.9079 37.0467 32.8 37.5323C33.3395 37.1546 33.8789 36.8849 34.4184 36.6152Z" fill="#C3C9CB"/>
<path d="M9.1171 41.6862L9.76447 43.4126C9.76447 43.4126 10.0342 44.2218 10.196 44.4376C10.25 44.5454 10.4118 44.7073 10.5197 44.8691C11.1671 45.5165 12.1382 45.8402 12.9474 45.5704C13.4868 45.4086 13.9724 45.1928 13.9724 45.1928L15.6987 44.4376C16.2382 44.1678 16.8316 44.006 17.425 43.8981C18.6658 43.6283 19.9066 43.6283 21.0934 43.8981C21.6868 44.006 22.2803 44.2218 22.8197 44.4376L24.4382 45.1389C24.4382 45.1389 25.3553 45.5705 25.6789 45.6783C26.4882 45.8941 27.3513 45.5704 27.9987 44.9231C28.1066 44.8152 28.2684 44.5994 28.3224 44.4376C28.4842 44.1678 28.7 43.4126 28.7 43.4126L29.3474 41.7402C29.5632 41.1468 29.8329 40.6612 30.1566 40.1218C29.6711 40.2297 29.1316 40.1757 28.5921 39.906L26.0566 38.7731L23.8987 37.856L23.7908 37.802L21.2013 36.6691C19.9066 36.1297 18.45 36.1297 17.1553 36.6691L14.5658 37.802V37.802L12.4079 38.7191L9.87237 39.852C9.27894 40.1218 8.79342 40.1757 8.30789 40.0678C8.63158 40.5533 8.90131 41.0928 9.1171 41.6862Z" fill="#C3C9CB"/>
<path d="M4.10001 16.3849L2.37369 17.0323L1.34869 17.4638C1.18685 17.5717 1.07895 17.6796 0.971058 17.7875C0.323689 18.4349 0.0539523 19.352 0.269742 20.2152L0.701321 21.1862L1.45658 22.9125C1.72632 23.452 1.88816 24.0454 1.99606 24.6388C2.26579 25.8796 2.26579 27.1204 1.99606 28.3073C1.88816 28.9007 1.67237 29.4941 1.45658 30.0336L0.755268 31.652L0.215794 32.8928C0.1079 33.702 0.323689 34.5652 0.971058 35.2125C1.07895 35.3204 1.18685 35.4283 1.29474 35.4823L2.48158 35.9678L4.15395 36.6152C4.74737 36.8309 5.2329 37.1007 5.77237 37.4244C5.66448 36.9388 5.71843 36.3994 5.98816 35.8599L7.12106 33.3244L8.03816 31.1665L8.09211 31.0586L9.22501 28.4691C9.76448 27.1744 9.76448 25.7178 9.22501 24.4231L8.09211 21.8336L8.03816 21.7257L7.12106 19.5678L5.93422 17.1402C5.66448 16.5467 5.61053 16.0612 5.71843 15.5757C5.2329 15.8454 4.69343 16.1691 4.10001 16.3849Z" fill="#C3C9CB"/>
<path d="M15.6987 8.45466L14.0263 7.69939C14.0263 7.69939 13.2711 7.32176 13.0013 7.26781C12.8395 7.21387 12.6237 7.21387 12.4618 7.21387C11.4908 7.21387 10.6276 7.69939 10.25 8.45466C9.98026 8.94018 9.81842 9.42571 9.81842 9.42571L9.11711 11.152C8.90132 11.7454 8.63158 12.2849 8.30789 12.7704C7.60658 13.8494 6.74342 14.7126 5.66447 15.4139C5.17895 15.7376 4.63947 16.0073 4.04605 16.277L2.42763 16.9244C2.42763 16.9244 1.45658 17.2481 1.18684 17.4099C0.377632 17.8415 0 18.7047 0 19.6218C0 19.7836 0.0539474 20.0533 0.107895 20.2152C0.161842 20.4849 0.539474 21.2402 0.539474 21.2402L1.29474 22.9126C1.51053 23.3441 1.67237 23.8297 1.78026 24.3152C1.83421 24.4231 1.99605 24.477 2.05 24.3691C2.31974 24.0994 2.64342 23.8297 3.12895 23.6678L5.71842 22.6428L7.93026 21.7797L8.03816 21.7257L10.6816 20.7007C11.9763 20.1612 13.0553 19.1362 13.5408 17.8415L14.5658 15.1981L14.6197 15.0902L15.4829 12.8783L16.5079 10.2889C16.6697 9.85729 16.9395 9.47966 17.2092 9.20992C17.3171 9.10203 17.2632 8.94018 17.1553 8.94018C16.6158 8.83229 16.1842 8.67045 15.6987 8.45466Z" fill="#DDE1E2"/>
<path d="M37.3316 22.9126L38.0868 21.1862L38.5184 20.1612C38.5724 19.9994 38.5724 19.8376 38.5724 19.6218C38.5724 18.6507 38.0868 17.8415 37.3316 17.356L36.3066 16.9783L34.5802 16.277C33.9868 16.0612 33.4474 15.7915 32.9618 15.4678C31.8829 14.7665 31.0197 13.9033 30.3184 12.8244C29.9947 12.3389 29.725 11.7994 29.4552 11.206L28.8079 9.58755L28.3224 8.34676V8.29281C27.8368 7.64545 27.0276 7.21387 26.1645 7.21387C26.0026 7.21387 25.8408 7.21387 25.7329 7.26781L24.546 7.75334L22.8737 8.5086C22.4421 8.72439 21.9566 8.88624 21.471 8.99413C21.3631 9.04808 21.3092 9.20992 21.4171 9.26387C21.6868 9.5336 21.9566 9.85729 22.1184 10.3428L23.1434 12.9323L24.0066 15.1441L24.0605 15.252L25.0855 17.8954C25.625 19.1902 26.65 20.2691 27.9447 20.7547L30.5881 21.7797L30.696 21.8336L32.9079 22.6968L35.4974 23.7218C35.9289 23.8836 36.3066 24.1533 36.5763 24.4231C36.6842 24.531 36.846 24.477 36.846 24.3691C36.9539 23.8297 37.1158 23.3981 37.3316 22.9126Z" fill="#DDE1E2"/>
<path d="M22.8737 44.5454L24.6 45.3007C24.6 45.3007 25.3552 45.6783 25.625 45.7323C25.7329 45.7862 26.0026 45.7862 26.1645 45.7862C27.1355 45.7862 27.9987 45.3007 28.3763 44.5454C28.646 44.0599 28.8079 43.5744 28.8079 43.5744L29.5092 41.8481C29.725 41.2546 29.9947 40.7152 30.3184 40.2296C31.0197 39.1507 31.8829 38.2875 32.9618 37.5862C33.4474 37.2625 33.9868 36.9928 34.5802 36.7231L36.1987 36.0757C36.1987 36.0757 37.1697 35.752 37.4395 35.5902C38.1947 35.2125 38.5724 34.2954 38.5724 33.4323C38.5724 33.2704 38.5184 33.0007 38.4645 32.8389C38.3566 32.5152 37.9789 31.8139 37.9789 31.8139L37.2237 30.1415C37.0079 29.7099 36.846 29.2244 36.7381 28.7389C36.6842 28.631 36.5224 28.577 36.4684 28.6849C36.1987 28.9546 35.875 29.2244 35.3895 29.3862L32.8 30.4112L30.5881 31.2744L30.4802 31.3283L27.8368 32.3533C26.5421 32.8928 25.4631 33.9178 24.9776 35.2125L23.9526 37.856L23.8987 37.9639L23.1434 40.1218L22.1184 42.7112C21.9566 43.1428 21.6868 43.5204 21.4171 43.7902C21.3092 43.8981 21.3631 44.0599 21.471 44.0599C21.9566 44.1678 22.4421 44.3296 22.8737 44.5454Z" fill="#DDE1E2"/>
<path d="M1.24079 30.0875L0.485526 31.8138L0.0539474 32.8389C0 33.0007 0 33.1625 0 33.3783C0 34.3494 0.485526 35.1586 1.24079 35.6441L2.26579 36.0217L3.99211 36.7231C4.58553 36.9389 5.125 37.2086 5.61053 37.5323C6.68947 38.2336 7.55263 39.0967 8.25395 40.1757C8.57763 40.6612 8.84737 41.2007 9.11711 41.7941L9.76447 43.4125L10.25 44.6533V44.7073C10.7355 45.3546 11.5447 45.7862 12.4079 45.7862C12.5697 45.7862 12.7316 45.7862 12.8395 45.7323L14.0263 45.2467L15.6987 44.4915C16.1303 44.2757 16.6158 44.1138 17.1013 44.006C17.2092 43.952 17.2632 43.7902 17.1553 43.7362C16.8855 43.4665 16.6158 43.1428 16.4539 42.6573L15.4289 40.0678L14.5658 37.856L14.5118 37.7481L13.4868 35.1586C12.9474 33.8638 11.9224 32.7849 10.6276 32.2994L7.98421 31.2744L7.87632 31.2204L5.66447 30.3573L3.075 29.3323C2.64342 29.1704 2.26579 28.9007 1.99605 28.631C1.88816 28.5231 1.72632 28.577 1.72632 28.6849C1.61842 29.1704 1.45658 29.656 1.24079 30.0875Z" fill="#DDE1E2"/>
</g>
<path d="M58.9938 16.2003C58.9938 17.7936 59.9801 21.6631 61.9528 27.8088L63.1668 31.6024L63.4323 31.5265C63.4576 30.9954 65.0257 25.7855 68.1364 15.8968C68.1364 15.6439 67.9973 15.4036 67.7191 15.176C67.4409 14.9231 67.1501 14.7587 66.8466 14.6828L66.9604 14.1517C68.225 14.2529 69.9574 14.3035 72.1577 14.3035C74.358 14.3035 76.1157 14.2023 77.4308 14L77.6205 14.9484C76.4066 15.3277 75.1799 15.5933 73.9407 15.745C73.8142 16.352 73.751 17.4395 73.751 19.0076C73.751 20.5503 73.9533 23.6611 74.358 28.3399C74.7879 33.0187 75.1799 36.1295 75.534 37.6722C76.8744 37.7987 78.2654 38.0389 79.707 38.393L79.5932 39.3035C77.7217 39.1012 75.6984 39 73.5234 39C71.3484 39 69.5907 39.1012 68.2502 39.3035L68.0985 38.3551C69.2366 38.001 70.4506 37.7355 71.7404 37.5584C71.7404 35.1558 71.6013 31.8427 71.3231 27.6191C71.0449 23.3955 70.6908 19.7789 70.2609 16.7693L70.1471 16.7314C66.5305 26.7466 64.6336 32.8417 64.4566 35.0167C62.8127 36.003 61.5861 36.9641 60.7768 37.8998L60.3216 37.5964C60.3721 37.04 60.3974 36.6227 60.3974 36.3445C60.3974 33.3854 58.7409 26.8477 55.4278 16.7314L55.276 16.7693L54.1 25.0774C53.5942 28.694 53.3413 31.9565 53.3413 34.8649C53.3413 35.8007 53.4424 36.5721 53.6448 37.1791C53.8724 37.786 54.315 38.2666 54.9725 38.6206L54.8208 39.1517C54.0368 39.0506 52.6964 39 50.7995 39C48.928 39 47.2462 39.1012 45.754 39.3035L45.6023 38.3551C46.7403 38.001 47.9543 37.7355 49.2441 37.5584L53.493 16.3899C50.5087 16.3899 48.5992 16.7946 47.7646 17.6039C47.5876 17.958 47.4991 18.5144 47.4991 19.2731C47.4991 20.0318 47.6255 20.5503 47.8784 20.8285L47.8405 21.0941C47.2082 21.4734 46.576 22.0045 45.9437 22.6874C45.6402 22.6621 45.3999 22.5356 45.2229 22.308C45.0206 22.0804 44.9194 21.8148 44.9194 21.5114C44.9194 20.2721 45.6655 18.7926 47.1576 17.0728C48.6498 15.353 50.0408 14.2655 51.3306 13.8103C51.533 13.8103 52.4434 13.8988 54.0621 14.0758C55.6807 14.2276 56.9326 14.3035 57.8178 14.3035C58.7282 14.3035 59.5881 14.2276 60.3974 14.0758L60.5492 15.0242C59.5122 15.4289 58.9938 15.8209 58.9938 16.2003ZM89.4048 39.4552C86.901 39.4552 84.8777 38.6712 83.335 37.1032C81.7922 35.5099 81.0209 33.3854 81.0209 30.7299C81.0209 28.0743 81.8302 25.5832 83.4488 23.2564C85.0674 20.9297 87.1792 19.4375 89.7841 18.7799C92.3891 18.7799 94.3744 19.526 95.7402 21.0182C97.1059 22.4851 97.7887 24.5842 97.7887 27.3156C97.7887 30.047 97.0426 32.5129 95.5505 34.7132C94.0836 36.9135 92.035 38.4942 89.4048 39.4552ZM88.7599 21.0941C87.6218 21.0941 86.6354 21.4102 85.8008 22.0425C84.7639 23.8128 84.2454 26.0384 84.2454 28.7193C84.2454 31.8047 85.1053 34.1694 86.8251 35.8133C87.7356 36.6985 88.8105 37.1411 90.0497 37.1411C91.289 37.1411 92.2879 36.8123 93.0467 36.1548C94.0583 34.3844 94.5641 32.222 94.5641 29.6677C94.5641 27.1133 94.1089 25.0521 93.1984 23.484C92.2879 21.8907 90.8084 21.0941 88.7599 21.0941ZM110.146 39.2656C108.831 39.0885 107.352 39 105.708 39C104.089 39 102.635 39.1012 101.345 39.3035L101.193 38.3171C102.003 38.0642 102.761 37.8746 103.469 37.7481C103.697 35.7754 103.811 33.1957 103.811 30.0091V28.2261C103.811 24.8371 103.684 22.2321 103.431 20.4112C102.749 20.3353 101.927 20.133 100.966 19.8042L101.079 18.8179C102.521 19.0961 104.026 19.2352 105.594 19.2352C107.187 19.2352 108.325 19.1467 109.008 18.9696L109.084 19.6145C108.401 19.7916 108.06 20.0824 108.06 20.4871C108.06 20.7906 108.351 21.4355 108.932 22.4218C109.539 23.3829 110.121 24.3186 110.677 25.2291C112.346 27.8847 114.319 31.1472 116.595 35.0167L116.709 34.9408V30.3126C116.709 26.9236 116.532 24.3819 116.178 22.6874C115.824 20.9676 115.217 19.9686 114.357 19.6904L114.433 19.0455C115.091 19.1719 116.077 19.2352 117.392 19.2352C118.707 19.2352 120.06 19.0961 121.451 18.8179L121.565 19.8042C120.528 20.133 119.656 20.3353 118.947 20.4112C118.694 22.4345 118.568 25.0394 118.568 28.2261V30.0091C118.568 33.8533 118.694 36.4583 118.947 37.824C120.01 38.001 120.857 38.2033 121.489 38.431L121.375 39.4173C120.111 39.1391 118.922 39 117.809 39C116.697 39 115.837 39.0506 115.23 39.1517C115.23 38.5953 114.838 37.6596 114.054 36.3445C113.295 35.0293 112.599 33.866 111.967 32.8543C109.919 29.5412 107.908 26.1775 105.935 22.7633L105.783 22.8391V27.9226C105.783 32.9555 106.163 36.2306 106.922 37.7481C108.06 37.8746 109.172 38.0642 110.26 38.3171L110.146 39.2656ZM127.196 36.1168C128.359 36.5974 129.51 36.8376 130.648 36.8376C131.786 36.8376 132.696 36.5721 133.379 36.041C134.062 35.5099 134.403 34.7511 134.403 33.7648C134.403 32.7532 132.975 31.5013 130.117 30.0091C129.029 29.4527 128.03 28.7825 127.12 27.9985C126.235 27.1892 125.792 26.3925 125.792 25.6085C125.792 24.2681 126.5 22.915 127.916 21.5493C129.333 20.1836 130.787 19.2605 132.279 18.7799C134.151 18.7799 135.845 18.9696 137.363 19.349V20.0318C136.3 21.0941 135.706 22.5483 135.58 24.3945H134.631C134.631 23.6864 134.568 22.8012 134.441 21.739C133.556 21.3343 132.608 21.132 131.596 21.132C130.585 21.132 129.737 21.3596 129.054 21.8148C128.397 22.2448 128.068 22.8771 128.068 23.7117C128.068 24.2934 128.511 24.9256 129.396 25.6085C130.306 26.2913 131.293 26.8983 132.355 27.4294C133.417 27.9605 134.391 28.6181 135.276 29.4021C136.186 30.1861 136.642 30.9701 136.642 31.7542C136.642 33.2716 135.972 34.7891 134.631 36.3065C133.291 37.7987 131.811 38.8483 130.193 39.4552C128.599 39.4552 127.107 39.2656 125.716 38.8862C125.311 39.0632 124.894 39.3541 124.464 39.7587L123.781 39.2656C125.198 37.7228 125.982 35.8133 126.133 33.5372H127.082C127.082 34.4223 127.12 35.2822 127.196 36.1168ZM152.965 21.2837C152.08 20.8538 151.232 20.6388 150.423 20.6388C149.614 20.6388 149.07 20.6894 148.792 20.7906C148.589 22.1563 148.488 24.7992 148.488 28.7193C148.488 32.6393 148.627 35.649 148.906 37.7481C150.044 37.8746 151.093 38.0642 152.054 38.3171L151.94 39.2656C150.625 39.0885 149.108 39 147.388 39C145.694 39 144.201 39.1012 142.912 39.3035L142.76 38.3171C143.266 38.1654 144.138 37.9757 145.377 37.7481C145.605 35.9272 145.719 33.3475 145.719 30.0091V28.2261C145.719 26.4557 145.58 23.9772 145.302 20.7906C145.023 20.6894 144.505 20.6388 143.746 20.6388C142.987 20.6388 142.178 20.8159 141.318 21.1699C141.065 21.9539 140.888 23.0035 140.787 24.3186H139.801C139.801 22.2448 139.459 20.6388 138.777 19.5007L138.966 18.8558C140.914 19.1087 143.645 19.2352 147.16 19.2352C150.676 19.2352 153.508 19.0961 155.658 18.8179L155.886 19.5387C155.254 20.2468 154.824 20.9423 154.596 21.6252C154.368 22.2827 154.229 23.1806 154.179 24.3186H153.23C153.053 23.484 152.965 22.4724 152.965 21.2837Z" fill="#C3C9CB"/>
<defs>
<clipPath id="clip0_365_3316">
<rect width="38.5724" height="38.5724" fill="white" transform="translate(0 7.21387)"/>
</clipPath>
</defs>
</svg>
