<svg width="205" height="43" viewBox="0 0 205 43" fill="none" xmlns="http://www.w3.org/2000/svg">
<g clip-path="url(#clip0_365_3342)">
<path d="M30.9658 21.2013C31.6672 20.9855 32.4764 20.9855 33.2316 21.2553C33.5014 21.3632 33.7711 21.4711 34.0408 21.6329C34.3106 21.7947 34.5803 21.9026 34.7961 22.1184C35.3356 22.4421 35.7672 22.8737 36.1987 23.3053C37.0619 24.2224 37.8172 25.4092 38.2487 26.7579C38.6803 28.1066 38.8961 29.725 38.6803 31.3434C38.5185 33.0158 37.979 34.6882 37.0619 36.3066C36.5224 37.2776 35.6053 38.0329 34.6882 38.4105C34.4724 38.5184 34.2027 38.5724 33.9869 38.6263C33.7711 38.6803 33.5014 38.6803 33.2856 38.6803C32.854 38.6803 32.4224 38.5724 32.0448 38.4105C31.3435 38.0329 31.0198 37.3855 30.9658 36.6303C30.9119 35.9289 31.1816 35.1197 31.6672 34.4184C32.2606 33.5013 32.6922 32.5303 32.908 31.5592C33.1237 30.5882 33.1237 29.5632 32.9619 28.6461C32.908 28.4303 32.854 28.1605 32.8001 27.9447C32.7461 27.8368 32.7461 27.7289 32.6922 27.6211C32.6382 27.5132 32.6382 27.4053 32.5843 27.2974C32.4764 27.0816 32.4224 26.8658 32.3145 26.7039C32.2066 26.4882 32.0987 26.3263 31.9908 26.1105C31.5053 25.3553 30.9658 24.7618 30.2645 24.2224C29.7251 23.7908 29.3474 23.3053 29.2395 22.9276C29.0777 22.4961 29.1856 22.1724 29.5632 21.7947C29.7251 21.6329 29.9408 21.525 30.1566 21.3632C30.4264 21.3632 30.6961 21.2553 30.9658 21.2013Z" fill="#DDE1E2"/>
<path d="M26.1645 29.1856C26.6501 29.6711 27.1356 30.3724 27.2435 31.1816C27.2974 31.5053 27.2974 31.775 27.2974 32.0448C27.2974 32.3685 27.2974 32.6382 27.2974 32.9619C27.2974 33.2856 27.2435 33.5553 27.1895 33.879C27.1356 34.2027 27.0816 34.4724 26.9737 34.7961C26.5961 36.0369 25.9487 37.2237 24.9777 38.3027C24.0066 39.3816 22.7119 40.2987 21.2014 41C19.6909 41.6474 17.9106 42.079 16.0764 42.079C14.9974 42.079 13.8645 41.7013 13.0553 41.054C12.2461 40.4066 11.7606 39.5974 11.7066 38.7882C11.6527 37.979 12.0843 37.3856 12.6777 36.954C13.0014 36.7382 13.3251 36.6303 13.7027 36.5224C14.0803 36.4145 14.5119 36.4145 14.9435 36.4145C16.0224 36.4685 17.1014 36.3606 18.0185 36.0369C18.504 35.875 18.9356 35.6592 19.3672 35.4435C19.583 35.3356 19.7987 35.1737 19.9606 35.0658C20.1764 34.9579 20.3382 34.7961 20.5001 34.6342C20.8777 34.3645 21.2014 33.9869 21.4711 33.6632C21.633 33.5014 21.7409 33.2856 21.8487 33.1237C21.9566 32.9619 22.0645 32.7461 22.1724 32.5842C22.604 31.829 22.8198 30.9658 22.9816 30.1566C23.0356 29.779 23.0895 29.5092 23.1974 29.2395C23.2514 29.1316 23.3053 28.9698 23.3593 28.8619C23.4132 28.8079 23.4132 28.754 23.4672 28.7C23.5211 28.6461 23.5211 28.5921 23.5751 28.5921C23.8448 28.2685 24.2224 28.1606 24.708 28.3224C24.8159 28.3763 24.9237 28.3763 25.0316 28.4303C25.1395 28.4842 25.2474 28.5382 25.3553 28.5921C25.733 28.8079 26.0027 28.9698 26.1645 29.1856Z" fill="#C3C9CB"/>
<path d="M16.8856 29.0237C16.7237 29.725 16.3461 30.4263 15.6987 30.9658C14.7816 31.6671 13.6487 32.2605 12.408 32.5303C11.1672 32.8 9.81848 32.854 8.3619 32.5842C6.95927 32.3145 5.50269 31.6671 4.154 30.6961C2.85927 29.6711 1.61848 28.3763 0.647426 26.7579C0.107952 25.7869 -0.107838 24.654 5.71795e-05 23.629C5.71795e-05 23.5211 0.0540046 23.3592 0.0540046 23.2513C0.107952 23.1434 0.107952 23.0355 0.161899 22.8737C0.215847 22.6579 0.323741 22.4421 0.431636 22.2263C0.647426 21.8487 0.97111 21.525 1.29479 21.3092C1.99611 20.8776 2.69743 20.9316 3.34479 21.2553C3.66848 21.4171 3.99216 21.6329 4.20795 21.9566C4.36979 22.1184 4.47769 22.2803 4.58558 22.4421C4.69348 22.604 4.80137 22.8197 4.90927 22.9816C5.39479 23.9526 6.04216 24.8158 6.79743 25.4632C7.55269 26.1645 8.41585 26.65 9.27901 26.9737C9.71058 27.1355 10.1422 27.2434 10.6277 27.2974C11.0593 27.3513 11.5448 27.4053 11.9764 27.3513C12.408 27.3513 12.8395 27.2974 13.2711 27.1895C13.7027 27.0816 14.0803 26.9737 14.458 26.8119C14.7816 26.704 15.1053 26.5961 15.3751 26.5421C15.5369 26.5421 15.6448 26.4882 15.7527 26.5421C15.8606 26.5421 15.9685 26.5421 16.0764 26.5961C16.508 26.704 16.7777 26.9197 16.8856 27.4053C17.0474 27.8908 17.0474 28.4842 16.8856 29.0237Z" fill="#DDE1E2"/>
<path d="M12.354 20.8776C11.6527 21.0934 10.8435 21.0934 10.0882 20.8237C9.81847 20.7158 9.54874 20.6079 9.279 20.4461C9.00926 20.2842 8.73953 20.1763 8.52374 19.9605C7.98426 19.6368 7.55268 19.2053 7.1211 18.7737C6.25795 17.8566 5.50268 16.6697 5.0711 15.321C4.63953 13.9724 4.42374 12.3539 4.63953 10.7355C4.80137 9.06316 5.34084 7.39079 6.25795 5.77237C6.79742 4.80131 7.71453 4.04605 8.63163 3.66842C8.84742 3.56052 9.11716 3.50658 9.33295 3.45263C9.54874 3.39868 9.81847 3.39868 10.0343 3.39868C10.4658 3.39868 10.8974 3.50658 11.2751 3.66842C11.9764 4.04605 12.3001 4.69342 12.354 5.44868C12.4079 6.15 12.1382 6.95921 11.6527 7.66052C11.0593 8.57763 10.6277 9.54868 10.4119 10.5197C10.1961 11.4908 10.1961 12.5158 10.3579 13.4329C10.4119 13.6487 10.4658 13.9184 10.5198 14.1342C10.5737 14.2421 10.5737 14.35 10.6277 14.4579C10.6816 14.5658 10.6816 14.6737 10.7356 14.7816C10.8435 14.9974 10.8974 15.2132 11.0053 15.375C11.1132 15.5908 11.2211 15.7526 11.329 15.9684C11.8145 16.7237 12.354 17.3171 13.0553 17.8566C13.5948 18.2882 13.9724 18.7737 14.0803 19.1513C14.2422 19.5829 14.1343 19.9066 13.7566 20.2842C13.5948 20.4461 13.379 20.5539 13.1632 20.7158C12.8935 20.7158 12.6237 20.8237 12.354 20.8776Z" fill="#C3C9CB"/>
<path d="M17.1553 12.8934C16.6698 12.4079 16.1843 11.7066 16.0764 10.8974C16.0224 10.5737 16.0224 10.3039 16.0224 10.0342C16.0224 9.71053 16.0224 9.44079 16.0224 9.11711C16.0224 8.79342 16.0764 8.52368 16.1303 8.2C16.1843 7.87632 16.2382 7.60658 16.3461 7.2829C16.7237 6.04211 17.3711 4.85526 18.3422 3.77632C19.3132 2.69737 20.608 1.78026 22.1185 1.07895C23.629 0.431579 25.4093 0 27.2435 0C28.3224 0 29.4553 0.377632 30.2645 1.025C31.0737 1.67237 31.5593 2.48158 31.6132 3.29079C31.6672 4.1 31.2356 4.69342 30.6422 5.125C30.3185 5.34079 29.9948 5.44868 29.6172 5.55658C29.2395 5.66447 28.808 5.66447 28.3764 5.66447C27.2974 5.61053 26.2185 5.71842 25.3014 6.04211C24.8159 6.20395 24.3843 6.41974 23.9527 6.63553C23.7369 6.74342 23.5211 6.90526 23.3593 7.01316C23.1435 7.12105 22.9816 7.2829 22.8198 7.44474C22.4422 7.71447 22.1185 8.09211 21.8487 8.41579C21.6869 8.57763 21.579 8.79342 21.4711 8.95526C21.3632 9.11711 21.2553 9.3329 21.1474 9.49474C20.7159 10.25 20.5001 11.1132 20.3382 11.9224C20.2843 12.3 20.2303 12.5697 20.1224 12.8395C20.0685 12.9474 20.0145 13.1092 19.9606 13.2171C19.9066 13.2711 19.9066 13.325 19.8527 13.3789C19.7987 13.4329 19.7987 13.4868 19.7448 13.4868C19.4751 13.8105 19.0974 13.9184 18.6119 13.7566C18.504 13.7026 18.3961 13.7026 18.2882 13.6487C18.1803 13.5947 18.0724 13.5408 17.9645 13.4868C17.5869 13.2711 17.3711 13.1092 17.1553 12.8934Z" fill="#DDE1E2"/>
<path d="M26.4343 13.0552C26.5961 12.3539 26.9738 11.6526 27.6211 11.1131C28.5382 10.4118 29.6711 9.81841 30.9119 9.54867C32.1527 9.27893 33.5014 9.22498 34.958 9.49472C36.3606 9.76446 37.8172 10.4118 39.1659 11.3829C40.5145 12.3539 41.7014 13.7026 42.6724 15.2671C43.2119 16.2381 43.4277 17.371 43.3198 18.396C43.3198 18.5039 43.2659 18.6658 43.2659 18.7737C43.2119 18.8816 43.2119 18.9895 43.158 19.1513C43.104 19.3671 42.9961 19.5829 42.8882 19.7987C42.6724 20.1763 42.3488 20.5 42.0251 20.7158C41.3238 21.1474 40.6224 21.0934 39.9751 20.7697C39.6514 20.6079 39.3277 20.3921 39.1119 20.0684C38.9501 19.9066 38.8422 19.7447 38.7343 19.5829C38.6264 19.421 38.5185 19.2052 38.4106 19.0434C37.9251 18.0724 37.2777 17.2092 36.5224 16.5618C35.7672 15.8605 34.904 15.375 34.0409 15.0513C33.6093 14.8895 33.1777 14.7816 32.6922 14.7276C32.2606 14.6737 31.829 14.6197 31.3435 14.6737C30.9119 14.6737 30.4803 14.7276 30.0488 14.8355C29.6172 14.9434 29.2395 15.0513 28.8619 15.2131C28.5382 15.321 28.2145 15.4289 27.9448 15.4829C27.783 15.4829 27.6751 15.5368 27.5672 15.4829C27.4593 15.4829 27.3514 15.4829 27.2435 15.4289C26.8119 15.321 26.5422 15.1052 26.4343 14.6197C26.2724 14.1881 26.3264 13.6487 26.4343 13.0552Z" fill="#C3C9CB"/>
</g>
<path d="M51.9207 9.71641H70.837V14.3258H63.893V31.536H59.2538V14.3258H51.9207V9.71641ZM82.4034 23.2751C82.4034 22.7363 82.3335 22.2973 82.1939 21.9581C82.0741 21.6189 81.9045 21.3495 81.685 21.15C81.4655 20.9504 81.2161 20.8108 80.9368 20.7309C80.6774 20.6511 80.418 20.6112 80.1586 20.6112H78.7518C78.5722 20.6112 78.3627 20.6412 78.1233 20.701C77.8838 20.7409 77.6543 20.8108 77.4349 20.9105C77.2353 21.0103 77.0657 21.14 76.926 21.2996C76.7864 21.4593 76.7165 21.6389 76.7165 21.8384V31.536H72.6759V9.71641H76.7165V17.9474C77.0158 17.7878 77.375 17.6481 77.794 17.5284C78.233 17.3887 78.672 17.3188 79.111 17.3188H80.7272C81.3259 17.3188 81.9145 17.4186 82.4932 17.6181C83.0918 17.8177 83.6305 18.1369 84.1094 18.5759C84.5883 18.995 84.9774 19.5537 85.2767 20.2521C85.576 20.9305 85.7257 21.7586 85.7257 22.7363V31.536H82.4034V23.2751ZM94.7933 17.2889C95.4917 17.2889 96.1602 17.3987 96.7987 17.6181C97.4372 17.8376 97.9959 18.1469 98.4748 18.546C98.9737 18.9451 99.3628 19.4439 99.6421 20.0425C99.9414 20.6212 100.091 21.2697 100.091 21.988V25.3702H91.2016V26.747C91.2016 26.9266 91.2316 27.1461 91.2914 27.4055C91.3712 27.6649 91.5009 27.9143 91.6805 28.1538C91.8601 28.3733 92.1095 28.5628 92.4288 28.7225C92.7481 28.8821 93.1571 28.9619 93.656 28.9619H94.8233C96.2599 28.9619 96.9783 28.3034 96.9783 26.9865H100.36V27.8844C100.36 28.6028 100.221 29.2014 99.9414 29.6803C99.6621 30.1392 99.2929 30.5083 98.834 30.7877C98.375 31.0671 97.8463 31.2566 97.2476 31.3564C96.649 31.4761 96.0305 31.536 95.3919 31.536H92.5186C92.0197 31.536 91.5009 31.4661 90.9622 31.3265C90.4434 31.1868 89.9445 30.9473 89.4656 30.6081C89.0067 30.2889 88.6076 29.8598 88.2684 29.3211C87.9292 28.7624 87.6997 28.0839 87.58 27.2858V21.988C87.58 21.3296 87.7297 20.721 88.029 20.1623C88.3283 19.5836 88.7273 19.0848 89.2262 18.6657C89.725 18.2267 90.3037 17.8875 90.9622 17.6481C91.6406 17.4086 92.349 17.2889 93.0873 17.2889H94.7933ZM91.2016 23.1254H96.679V22.2275C96.679 21.9681 96.6091 21.7187 96.4694 21.4792C96.3497 21.2198 96.1801 21.0003 95.9606 20.8207C95.7411 20.6212 95.4917 20.4715 95.2124 20.3718C94.933 20.2521 94.6536 20.1922 94.3743 20.1922H93.4165C93.1372 20.1922 92.8578 20.2521 92.5784 20.3718C92.319 20.4715 92.0796 20.6212 91.8601 20.8207C91.6606 21.0003 91.5009 21.2198 91.3812 21.4792C91.2615 21.7187 91.2016 21.9681 91.2016 22.2275V23.1254ZM117.913 12.7095H108.365V18.6957H116.776V21.5989H108.365V31.536H103.307V9.74634H117.913V12.7095ZM123.782 31.536H119.861V9.71641H123.782V31.536ZM131.072 31.536C130.434 31.536 129.815 31.4462 129.217 31.2666C128.638 31.087 128.129 30.8077 127.69 30.4285C127.251 30.0694 126.902 29.6104 126.643 29.0517C126.383 28.4731 126.253 27.7946 126.253 27.0164V21.6887C126.253 21.0702 126.393 20.4915 126.672 19.9527C126.972 19.414 127.361 18.9451 127.84 18.546C128.339 18.1469 128.917 17.8376 129.576 17.6181C130.234 17.3987 130.933 17.2889 131.671 17.2889H133.527C134.365 17.2889 135.123 17.4086 135.801 17.6481C136.5 17.8875 137.098 18.2068 137.597 18.6059C138.096 19.0049 138.475 19.4838 138.735 20.0425C139.014 20.6012 139.154 21.1899 139.154 21.8085V27.3157C139.154 27.9343 139.044 28.503 138.824 29.0218C138.605 29.5406 138.286 29.9796 137.867 30.3387C137.448 30.7179 136.949 31.0072 136.37 31.2067C135.791 31.4262 135.143 31.536 134.425 31.536H131.072ZM133.377 28.8123C133.716 28.8123 134.005 28.7524 134.245 28.6327C134.504 28.493 134.714 28.3334 134.873 28.1538C135.053 27.9542 135.183 27.7447 135.263 27.5252C135.342 27.2858 135.382 27.0563 135.382 26.8368V22.5867C135.382 22.1078 135.183 21.6488 134.784 21.2098C134.405 20.7509 133.866 20.5214 133.167 20.5214H132.329C132.05 20.5214 131.771 20.5613 131.491 20.6412C131.232 20.721 130.982 20.8507 130.743 21.0303C130.524 21.1899 130.344 21.3994 130.204 21.6588C130.065 21.9182 129.995 22.2375 129.995 22.6166V26.6872C129.995 26.8468 130.015 27.0563 130.055 27.3157C130.114 27.5552 130.214 27.7846 130.354 28.0041C130.514 28.2236 130.723 28.4132 130.982 28.5728C131.262 28.7325 131.611 28.8123 132.03 28.8123H133.377ZM157.038 17.3188H162.576L157.158 31.536H153.327L151.441 26.5974L149.556 31.536H145.934L140.517 17.3188H144.767C145.266 18.6158 145.754 19.9029 146.233 21.1799C146.712 22.437 147.211 23.7141 147.73 25.0111C147.75 24.9312 147.81 24.7616 147.91 24.5022C148.029 24.2428 148.159 23.9335 148.299 23.5744C148.438 23.1953 148.588 22.7862 148.748 22.3472C148.927 21.8883 149.107 21.4293 149.286 20.9704L147.91 17.3188H151.082C151.581 18.6158 152.07 19.9029 152.549 21.1799C153.028 22.437 153.527 23.7141 154.045 25.0111L157.038 17.3188Z" fill="#C3C9CB"/>
<defs>
<clipPath id="clip0_365_3342">
<rect width="43.3197" height="42.0789" fill="white"/>
</clipPath>
</defs>
</svg>
